<?xml version="1.0" encoding="UTF-8"?>
<svg xmlns="http://www.w3.org/2000/svg" width="800.000" height="600.000" viewBox="0.0 0.0 800.000 600.000" version="1.1">
  <title>Produce by Acme CAD Converter</title>
  <desc>Produce by Acme CAD Converter</desc>
<polyline points="11.55,338.93 37.73,338.93" style="fill:none;stroke:black;stroke-width:0.5"/>
<polyline points="37.73,338.93 41.48,338.46 45.18,337.73 48.82,336.73 52.38,335.47 55.84,333.96" style="fill:none;stroke:black;stroke-width:0.5"/>
<polyline points="121.18,351.68 120.82,352.71" style="fill:none;stroke:black;stroke-width:0.5"/>
<polyline points="114.33,362.44 114.52,358.65 115.12,354.91 116.1,351.24 117.46,347.7 119.18,344.32 121.25,341.14 123.63,338.19 126.31,335.51 129.26,333.13 132.44,331.06 135.82,329.34 139.36,327.98 143.03,327 146.77,326.4 150.56,326.21 154.35,326.4 158.09,327 161.76,327.98 165.3,329.34 168.68,331.06 171.86,333.13 174.8,335.51 177.49,338.19 179.87,341.14 181.94,344.32 183.66,347.7 185.02,351.24 186,354.91 186.59,358.65 186.79,362.44 186.59,366.23 186,369.97 185.02,373.64 183.66,377.18 181.94,380.56 179.87,383.74 177.49,386.68 174.8,389.37 171.86,391.75 168.68,393.82 165.3,395.54 161.76,396.9 158.09,397.88 154.35,398.47 150.56,398.67 146.77,398.47 143.03,397.88 139.36,396.9 135.82,395.54 132.44,393.82 129.26,391.75 126.31,389.37 123.63,386.68 121.25,383.74 119.18,380.56 117.46,377.18 116.1,373.64 115.12,369.97 114.52,366.23 114.33,362.44" style="fill:none;stroke:black;stroke-width:0.5"/>
<polyline points="112.33,362.44 112.52,358.57 113.11,354.74 114.08,350.99 115.42,347.36 117.13,343.88 119.18,340.6 121.55,337.54 124.22,334.73 127.16,332.21 130.33,329.99 133.72,328.11 137.28,326.59 140.98,325.43 144.77,324.65 148.62,324.26 152.5,324.26 156.35,324.65 160.14,325.43 163.84,326.59 167.4,328.11 170.78,329.99 173.96,332.21 176.9,334.73 179.57,337.54 181.94,340.6 183.99,343.88 185.69,347.36 187.04,350.99 188.01,354.74 188.6,358.57 188.79,362.44 188.6,366.31 188.01,370.14 187.04,373.89 185.69,377.52 183.99,380.99 181.94,384.28 179.57,387.34 176.9,390.15 173.96,392.67 170.78,394.89 167.4,396.77 163.84,398.29 160.14,399.45 156.35,400.23 152.5,400.62 148.62,400.62 144.77,400.23 140.98,399.45 137.28,398.29 133.72,396.77 130.33,394.89 127.16,392.67 124.22,390.15 121.55,387.34 119.18,384.28 117.13,380.99 115.42,377.52 114.08,373.89 113.11,370.14 112.52,366.31 112.33,362.44" style="fill:none;stroke:black;stroke-width:0.5"/>
<polyline points="95.32,362.44 95.51,357.75 96.11,353.1 97.1,348.52 98.47,344.04 100.22,339.68 102.33,335.5 104.79,331.5 107.58,327.73 110.68,324.21 114.06,320.97 117.71,318.02 121.59,315.4 125.69,313.11 129.96,311.18 134.38,309.62 138.92,308.44 143.54,307.64 148.21,307.25 152.9,307.25 157.58,307.64 162.2,308.44 166.74,309.62 171.16,311.18 175.43,313.11 179.52,315.4 183.41,318.02 187.06,320.97 190.44,324.21 193.54,327.73 196.33,331.5 198.79,335.5 200.9,339.68 202.65,344.04 204.02,348.52 205.01,353.1 205.6,357.75 205.8,362.44 205.6,367.12 205.01,371.78 204.02,376.36 202.65,380.84 200.9,385.19 198.79,389.38 196.33,393.37 193.54,397.14 190.44,400.66 187.06,403.91 183.41,406.86 179.52,409.48 175.43,411.77 171.16,413.7 166.74,415.26 162.2,416.44 157.58,417.24 152.9,417.63 148.21,417.63 143.54,417.24 138.92,416.44 134.38,415.26 129.96,413.7 125.69,411.77 121.59,409.48 117.71,406.86 114.06,403.91 110.68,400.66 107.58,397.14 104.79,393.37 102.33,389.38 100.22,385.19 98.47,380.84 97.1,376.36 96.11,371.78 95.51,367.12 95.32,362.44" style="fill:none;stroke:black;stroke-width:0.5"/>
<polyline points="146.02,362.44 146.21,361.16 146.74,359.99 147.59,359.01 148.68,358.32 149.91,357.95 151.2,357.95 152.44,358.32 153.53,359.01 154.37,359.99 154.91,361.16 155.09,362.44 154.91,363.72 154.37,364.89 153.53,365.87 152.44,366.56 151.2,366.93 149.91,366.93 148.68,366.56 147.59,365.87 146.74,364.89 146.21,363.72 146.02,362.44" style="fill:none;stroke:black;stroke-width:0.5"/>
<polyline points="148.34,353.29 148.53,352.38 149.04,351.6 149.82,351.08 150.74,350.9 151.65,351.08 152.43,351.6 152.95,352.38 153.13,353.29 152.95,354.21 152.43,354.99 151.65,355.5 150.74,355.69 149.82,355.5 149.04,354.99 148.53,354.21 148.34,353.29" style="fill:none;stroke:black;stroke-width:0.5"/>
<polyline points="156.66,359.63 156.85,358.72 157.37,357.94 158.14,357.42 159.06,357.24 159.97,357.42 160.75,357.94 161.27,358.72 161.45,359.63 161.27,360.55 160.75,361.33 159.97,361.84 159.06,362.03 158.14,361.84 157.37,361.33 156.85,360.55 156.66,359.63" style="fill:none;stroke:black;stroke-width:0.5"/>
<polyline points="153.44,369.4 153.62,368.49 154.14,367.71 154.92,367.19 155.83,367.01 156.75,367.19 157.52,367.71 158.04,368.49 158.23,369.4 158.04,370.32 157.52,371.1 156.75,371.61 155.83,371.8 154.92,371.61 154.14,371.1 153.62,370.32 153.44,369.4" style="fill:none;stroke:black;stroke-width:0.5"/>
<polyline points="143.14,369.3 143.33,368.38 143.84,367.61 144.62,367.09 145.54,366.91 146.45,367.09 147.23,367.61 147.75,368.38 147.93,369.3 147.75,370.22 147.23,370.99 146.45,371.51 145.54,371.69 144.62,371.51 143.84,370.99 143.33,370.22 143.14,369.3" style="fill:none;stroke:black;stroke-width:0.5"/>
<polyline points="140.13,359.32 140.31,358.41 140.83,357.63 141.6,357.11 142.52,356.93 143.44,357.11 144.21,357.63 144.73,358.41 144.91,359.32 144.73,360.24 144.21,361.01 143.44,361.53 142.52,361.71 141.6,361.53 140.83,361.01 140.31,360.24 140.13,359.32" style="fill:none;stroke:black;stroke-width:0.5"/>
<polyline points="142.87,330.36 142.87,349.71" style="fill:none;stroke:black;stroke-width:0.5"/>
<polyline points="142.87,349.71 140.64,351.16" style="fill:none;stroke:black;stroke-width:0.5"/>
<polyline points="140.64,351.16 121.28,344.8" style="fill:none;stroke:black;stroke-width:0.5"/>
<polyline points="149.17,329.21 149.17,347.79" style="fill:none;stroke:black;stroke-width:0.5"/>
<polyline points="149.17,347.79 150.71,349.1" style="fill:none;stroke:black;stroke-width:0.5"/>
<polyline points="150.71,349.1 152.01,347.87" style="fill:none;stroke:black;stroke-width:0.5"/>
<polyline points="152.01,347.87 152.01,329.36" style="fill:none;stroke:black;stroke-width:0.5"/>
<polyline points="157.93,330.21 157.93,348.56" style="fill:none;stroke:black;stroke-width:0.5"/>
<polyline points="157.93,348.56 159.77,350.33" style="fill:none;stroke:black;stroke-width:0.5"/>
<polyline points="159.77,350.33 179.29,344.64" style="fill:none;stroke:black;stroke-width:0.5"/>
<polyline points="120.42,350.57 137.06,356.14" style="fill:none;stroke:black;stroke-width:0.5"/>
<polyline points="137.06,356.14 138.08,357.89" style="fill:none;stroke:black;stroke-width:0.5"/>
<polyline points="119.49,353.12 136.21,358.71" style="fill:none;stroke:black;stroke-width:0.5"/>
<polyline points="136.21,358.71 138.08,357.89" style="fill:none;stroke:black;stroke-width:0.5"/>
<polyline points="130.04,387.85 140.36,373.67" style="fill:none;stroke:black;stroke-width:0.5"/>
<polyline points="132.19,389.51 142.56,375.25" style="fill:none;stroke:black;stroke-width:0.5"/>
<polyline points="140.36,373.67 142.56,373.19" style="fill:none;stroke:black;stroke-width:0.5"/>
<polyline points="142.56,375.25 142.56,373.19" style="fill:none;stroke:black;stroke-width:0.5"/>
<polyline points="168.79,389.45 158.08,375.57" style="fill:none;stroke:black;stroke-width:0.5"/>
<polyline points="170.99,387.86 160.21,373.9" style="fill:none;stroke:black;stroke-width:0.5"/>
<polyline points="158.08,375.57 158.24,373.61" style="fill:none;stroke:black;stroke-width:0.5"/>
<polyline points="160.21,373.9 158.24,373.61" style="fill:none;stroke:black;stroke-width:0.5"/>
<polyline points="165.3,366 164.95,368.35" style="fill:none;stroke:black;stroke-width:0.5"/>
<polyline points="182.43,359.39 165.3,366" style="fill:none;stroke:black;stroke-width:0.5"/>
<polyline points="164.95,368.35 176.64,384.52" style="fill:none;stroke:black;stroke-width:0.5"/>
<polyline points="152.21,377.56 149.59,377.57" style="fill:none;stroke:black;stroke-width:0.5"/>
<polyline points="163.33,392.15 152.21,377.56" style="fill:none;stroke:black;stroke-width:0.5"/>
<polyline points="149.59,377.57 137.59,393.62" style="fill:none;stroke:black;stroke-width:0.5"/>
<polyline points="125.91,383.63 136.3,368.96" style="fill:none;stroke:black;stroke-width:0.5"/>
<polyline points="135.99,366.78 117.51,359.25" style="fill:none;stroke:black;stroke-width:0.5"/>
<polyline points="136.3,368.96 135.99,366.78" style="fill:none;stroke:black;stroke-width:0.5"/>
<polyline points="150.63,360.38 150.08,359.96 149.39,359.83 148.72,360.03 148.21,360.51 147.98,361.17" style="fill:none;stroke:black;stroke-width:0.5"/>
<polyline points="147.98,361.17 147.94,362.33 148.13,363.49 148.54,364.58" style="fill:none;stroke:black;stroke-width:0.5"/>
<polyline points="148.54,364.58 148.63,364.69 148.76,364.7 148.87,364.62 148.89,364.48" style="fill:none;stroke:black;stroke-width:0.5"/>
<polyline points="149.62,364.42 149.55,364.18 149.34,364.04 149.1,364.06 148.92,364.23 148.89,364.48" style="fill:none;stroke:black;stroke-width:0.5"/>
<polyline points="149.62,364.42 149.66,364.89" style="fill:none;stroke:black;stroke-width:0.5"/>
<polyline points="149.66,364.89 149.73,365.03 149.89,365.08" style="fill:none;stroke:black;stroke-width:0.5"/>
<polyline points="150.11,365.29 150.02,365.16 149.89,365.08" style="fill:none;stroke:black;stroke-width:0.5"/>
<polyline points="150.11,365.29 150.32,365.54 150.63,365.63" style="fill:none;stroke:black;stroke-width:0.5"/>
<polyline points="153.28,361.17 153.05,360.51 152.54,360.03 151.87,359.83 151.19,359.96 150.63,360.38" style="fill:none;stroke:black;stroke-width:0.5"/>
<polyline points="152.72,364.58 153.13,363.49 153.32,362.33 153.28,361.17" style="fill:none;stroke:black;stroke-width:0.5"/>
<polyline points="152.37,364.48 152.34,364.23 152.17,364.06 151.92,364.04 151.71,364.18 151.64,364.42" style="fill:none;stroke:black;stroke-width:0.5"/>
<polyline points="152.37,364.48 152.39,364.62 152.5,364.7 152.63,364.69 152.72,364.58" style="fill:none;stroke:black;stroke-width:0.5"/>
<polyline points="150.63,365.63 150.94,365.54 151.15,365.29" style="fill:none;stroke:black;stroke-width:0.5"/>
<polyline points="151.37,365.08 151.24,365.16 151.15,365.29" style="fill:none;stroke:black;stroke-width:0.5"/>
<polyline points="151.37,365.08 151.53,365.03 151.6,364.89" style="fill:none;stroke:black;stroke-width:0.5"/>
<polyline points="151.64,364.42 151.6,364.89" style="fill:none;stroke:black;stroke-width:0.5"/>
<polyline points="150.31,363.66 150.26,363.49 150.13,363.36 149.95,363.33" style="fill:none;stroke:black;stroke-width:0.5"/>
<polyline points="149.95,363.33 149.99,363.51 150.13,363.64 150.31,363.66" style="fill:none;stroke:black;stroke-width:0.5"/>
<polyline points="150.91,363.65 151.1,363.62 151.23,363.5 151.27,363.32" style="fill:none;stroke:black;stroke-width:0.5"/>
<polyline points="151.27,363.32 151.09,363.35 150.96,363.47 150.91,363.65" style="fill:none;stroke:black;stroke-width:0.5"/>
<polyline points="120.82,352.71 136.17,357.84" style="fill:none;stroke:black;stroke-width:0.5"/>
<polyline points="121.18,351.68 136.51,356.81" style="fill:none;stroke:black;stroke-width:0.5"/>
<polyline points="136.17,357.84 136.92,357.51" style="fill:none;stroke:black;stroke-width:0.5"/>
<polyline points="136.51,356.81 136.92,357.51" style="fill:none;stroke:black;stroke-width:0.5"/>
<polyline points="140.94,359.32 141.12,358.59 141.62,358.02 142.33,357.75 143.08,357.85 143.7,358.28 144.05,358.94 144.05,359.7 143.7,360.37 143.08,360.8 142.33,360.89 141.62,360.62 141.12,360.06 140.94,359.32" style="fill:none;stroke:black;stroke-width:0.5"/>
<polyline points="149.16,353.29 149.34,352.56 149.84,351.99 150.55,351.73 151.3,351.82 151.92,352.25 152.27,352.92 152.27,353.67 151.92,354.34 151.3,354.77 150.55,354.86 149.84,354.59 149.34,354.03 149.16,353.29" style="fill:none;stroke:black;stroke-width:0.5"/>
<polyline points="157.48,359.63 157.66,358.9 158.16,358.33 158.87,358.07 159.62,358.16 160.24,358.59 160.59,359.26 160.59,360.01 160.24,360.68 159.62,361.11 158.87,361.2 158.16,360.93 157.66,360.37 157.48,359.63" style="fill:none;stroke:black;stroke-width:0.5"/>
<polyline points="154.25,369.4 154.43,368.67 154.94,368.1 155.64,367.84 156.39,367.93 157.01,368.36 157.37,369.03 157.37,369.78 157.01,370.45 156.39,370.88 155.64,370.97 154.94,370.7 154.43,370.14 154.25,369.4" style="fill:none;stroke:black;stroke-width:0.5"/>
<polyline points="143.96,369.3 144.14,368.57 144.64,368 145.35,367.73 146.1,367.82 146.72,368.25 147.07,368.92 147.07,369.68 146.72,370.35 146.1,370.78 145.35,370.87 144.64,370.6 144.14,370.03 143.96,369.3" style="fill:none;stroke:black;stroke-width:0.5"/>
<polyline points="135.25,367.35 119.31,360.86" style="fill:none;stroke:black;stroke-width:0.5"/>
<polyline points="135.45,368.75 135.25,367.35" style="fill:none;stroke:black;stroke-width:0.5"/>
<polyline points="126.1,381.95 135.45,368.75" style="fill:none;stroke:black;stroke-width:0.5"/>
<polyline points="140.84,374.4 141.75,374.2" style="fill:none;stroke:black;stroke-width:0.5"/>
<polyline points="141.74,374.98 141.75,374.2" style="fill:none;stroke:black;stroke-width:0.5"/>
<polyline points="132.36,387.89 141.74,374.98" style="fill:none;stroke:black;stroke-width:0.5"/>
<polyline points="131.49,387.24 140.84,374.4" style="fill:none;stroke:black;stroke-width:0.5"/>
<polyline points="149.99,378.38 139.92,391.86" style="fill:none;stroke:black;stroke-width:0.5"/>
<polyline points="151.81,378.37 149.99,378.38" style="fill:none;stroke:black;stroke-width:0.5"/>
<polyline points="161.89,391.6 151.81,378.37" style="fill:none;stroke:black;stroke-width:0.5"/>
<polyline points="158.92,375.32 158.98,374.54" style="fill:none;stroke:black;stroke-width:0.5"/>
<polyline points="168.66,387.96 158.92,375.32" style="fill:none;stroke:black;stroke-width:0.5"/>
<polyline points="159.77,374.66 158.98,374.54" style="fill:none;stroke:black;stroke-width:0.5"/>
<polyline points="169.54,387.31 159.77,374.66" style="fill:none;stroke:black;stroke-width:0.5"/>
<polyline points="181.79,360.51 166.04,366.58" style="fill:none;stroke:black;stroke-width:0.5"/>
<polyline points="165.81,368.14 175.42,381.44" style="fill:none;stroke:black;stroke-width:0.5"/>
<polyline points="166.04,366.58 165.81,368.14" style="fill:none;stroke:black;stroke-width:0.5"/>
<polyline points="180.29,352.7 165.91,358.03" style="fill:none;stroke:black;stroke-width:0.5"/>
<polyline points="179.94,351.67 165.53,357.02" style="fill:none;stroke:black;stroke-width:0.5"/>
<polyline points="182.35,352.8 165.9,358.9" style="fill:none;stroke:black;stroke-width:0.5"/>
<polyline points="181.48,350.23 164.95,356.37" style="fill:none;stroke:black;stroke-width:0.5"/>
<polyline points="165.91,358.03 165.15,357.74" style="fill:none;stroke:black;stroke-width:0.5"/>
<polyline points="165.53,357.02 165.15,357.74" style="fill:none;stroke:black;stroke-width:0.5"/>
<polyline points="164.95,356.37 164.01,358.18" style="fill:none;stroke:black;stroke-width:0.5"/>
<polyline points="165.9,358.9 164.01,358.18" style="fill:none;stroke:black;stroke-width:0.5"/>
<polyline points="160,349.41 176.31,344.67" style="fill:none;stroke:black;stroke-width:0.5"/>
<polyline points="158.74,348.21 160,349.41" style="fill:none;stroke:black;stroke-width:0.5"/>
<polyline points="158.74,332.24 158.74,348.21" style="fill:none;stroke:black;stroke-width:0.5"/>
<polyline points="151.2,347.52 151.2,331.16" style="fill:none;stroke:black;stroke-width:0.5"/>
<polyline points="149.98,331.16 149.98,347.42" style="fill:none;stroke:black;stroke-width:0.5"/>
<polyline points="149.98,347.42 150.68,348.01" style="fill:none;stroke:black;stroke-width:0.5"/>
<polyline points="150.68,348.01 151.2,347.52" style="fill:none;stroke:black;stroke-width:0.5"/>
<polyline points="142.06,332.33 142.06,349.27" style="fill:none;stroke:black;stroke-width:0.5"/>
<polyline points="142.06,349.27 140.52,350.27" style="fill:none;stroke:black;stroke-width:0.5"/>
<polyline points="140.52,350.27 124.57,345.02" style="fill:none;stroke:black;stroke-width:0.5"/>
<polyline points="146.46,362.44 146.65,361.23 147.18,360.13 148.01,359.24 149.06,358.63 150.25,358.36 151.47,358.45 152.61,358.89 153.56,359.65 154.25,360.66 154.61,361.83 154.61,363.05 154.25,364.22 153.56,365.22 152.61,365.99 151.47,366.43 150.25,366.52 149.06,366.25 148.01,365.64 147.18,364.75 146.65,363.65 146.46,362.44" style="fill:none;stroke:black;stroke-width:0.5"/>
<polyline points="152.88,361.21 152.63,360.63 152.1,360.28 151.47,360.29 150.94,360.64" style="fill:none;stroke:black;stroke-width:0.5"/>
<polyline points="150.32,360.64 149.79,360.29 149.16,360.28 148.63,360.63 148.38,361.21" style="fill:none;stroke:black;stroke-width:0.5"/>
<polyline points="148.38,361.22 148.34,362.29 148.51,363.35 148.88,364.35" style="fill:none;stroke:black;stroke-width:0.5"/>
<polyline points="152.38,364.35 152.75,363.35 152.92,362.29 152.88,361.22" style="fill:none;stroke:black;stroke-width:0.5"/>
<polyline points="150.32,360.64 150.63,360.97" style="fill:none;stroke:black;stroke-width:0.5"/>
<polyline points="150.94,360.64 150.63,360.97" style="fill:none;stroke:black;stroke-width:0.5"/>
<polyline points="30.36,385.01 53.52,385.01" style="fill:none;stroke:black;stroke-width:0.5"/>
<polyline points="215.73,363.88 215.65,358.83 215.18,353.8 214.31,348.81 213.06,343.92 211.44,339.13 209.45,334.48 207.11,330 204.43,325.72 201.42,321.66 198.1,317.84 194.51,314.29 190.64,311.03 186.54,308.08 182.22,305.45 177.71,303.17 173.03,301.24 168.22,299.69 163.31,298.51 158.32,297.71 153.28,297.3 148.22,297.29 143.18,297.67 138.19,298.43 133.26,299.58 128.45,301.11 123.76,303.01 119.24,305.26 114.9,307.86 110.78,310.79 106.9,314.03 103.28,317.56 99.94,321.35 96.91,325.4 94.2,329.67 91.83,334.13 89.82,338.77 88.16,343.55 86.89,348.44 85.99,353.41 85.49,358.44 85.37,363.5" style="fill:none;stroke:black;stroke-width:0.5"/>
<polyline points="223.26,364.56 223.22,359.26 222.8,353.97 221.99,348.73 220.8,343.57 219.24,338.5 217.31,333.56 215.03,328.77 212.41,324.16 209.46,319.76 206.19,315.58 202.63,311.66 198.79,308 194.7,304.63 190.37,301.57 185.83,298.83 181.1,296.43 176.21,294.38 171.19,292.69 166.05,291.37 160.83,290.43 155.56,289.88 150.26,289.7 144.96,289.92 139.69,290.52 134.48,291.5 129.36,292.86 124.35,294.59 119.47,296.68 114.77,299.12 110.25,301.9 105.95,304.99 101.88,308.39 98.07,312.08 94.54,316.04 91.31,320.25 88.4,324.67 85.81,329.3 83.57,334.11 81.68,339.06 80.16,344.14 79.02,349.32 78.25,354.57 77.87,359.85 77.87,365.16" style="fill:none;stroke:black;stroke-width:0.5"/>
<polyline points="77.87,362.52 77.87,385.01" style="fill:none;stroke:black;stroke-width:0.5"/>
<polyline points="85.37,362.46 85.37,385.01" style="fill:none;stroke:black;stroke-width:0.5"/>
<polyline points="223.26,362.37 223.26,390.11" style="fill:none;stroke:black;stroke-width:0.5"/>
<polyline points="215.73,362.54 215.73,390.2" style="fill:none;stroke:black;stroke-width:0.5"/>
<polyline points="215.73,390.2 547.26,386.38" style="fill:none;stroke:black;stroke-width:0.5"/>
<polyline points="120.58,353.49 119.8,356.71 119.37,360.01" style="fill:none;stroke:black;stroke-width:0.5"/>
<polyline points="124.11,345.73 122.67,348.26 121.47,350.92" style="fill:none;stroke:black;stroke-width:0.5"/>
<polyline points="142.06,332.33 139.07,333.34 136.2,334.64 133.48,336.23 130.93,338.08 128.58,340.17 126.45,342.5 124.57,345.02" style="fill:none;stroke:black;stroke-width:0.5"/>
<polyline points="149.17,331.18 146,331.49 142.87,332.11" style="fill:none;stroke:black;stroke-width:0.5"/>
<polyline points="151.2,331.16 149.98,331.16" style="fill:none;stroke:black;stroke-width:0.5"/>
<polyline points="157.93,332.03 154.99,331.47 152.01,331.19" style="fill:none;stroke:black;stroke-width:0.5"/>
<polyline points="176.31,344.67 174.4,342.18 172.25,339.89 169.88,337.83 167.32,336.02 164.6,334.48 161.73,333.21 158.74,332.24" style="fill:none;stroke:black;stroke-width:0.5"/>
<polyline points="179.65,350.91 178.35,348.07 176.78,345.38" style="fill:none;stroke:black;stroke-width:0.5"/>
<polyline points="180.29,352.7 179.94,351.67" style="fill:none;stroke:black;stroke-width:0.5"/>
<polyline points="181.72,359.67 181.28,356.54 180.53,353.48" style="fill:none;stroke:black;stroke-width:0.5"/>
<polyline points="175.42,381.44 177.22,378.81 178.75,376.01 179.99,373.07 180.92,370.01 181.53,366.88 181.82,363.7 181.79,360.51" style="fill:none;stroke:black;stroke-width:0.5"/>
<polyline points="170.18,386.81 172.66,384.58 174.89,382.1" style="fill:none;stroke:black;stroke-width:0.5"/>
<polyline points="168.66,387.96 169.54,387.31" style="fill:none;stroke:black;stroke-width:0.5"/>
<polyline points="162.67,391.29 165.4,389.98 167.99,388.42" style="fill:none;stroke:black;stroke-width:0.5"/>
<polyline points="139.92,391.86 142.99,392.8 146.13,393.41 149.33,393.7 152.53,393.66 155.72,393.3 158.85,392.61 161.89,391.6" style="fill:none;stroke:black;stroke-width:0.5"/>
<polyline points="133.03,388.35 135.99,390.13 139.13,391.56" style="fill:none;stroke:black;stroke-width:0.5"/>
<polyline points="131.49,387.24 132.36,387.89" style="fill:none;stroke:black;stroke-width:0.5"/>
<polyline points="126.64,382.6 128.65,384.77 130.85,386.74" style="fill:none;stroke:black;stroke-width:0.5"/>
<polyline points="119.31,360.86 119.32,364.1 119.65,367.31 120.32,370.48 121.31,373.56 122.62,376.52 124.22,379.32 126.1,381.95" style="fill:none;stroke:black;stroke-width:0.5"/>
<polyline points="23.57,333.29 33.39,333.29" style="fill:none;stroke:black;stroke-width:0.5"/>
<polyline points="19.19,367.56 30.88,367.56" style="fill:none;stroke:black;stroke-width:0.5"/>
<polyline points="21.28,377.15 36.23,377.15" style="fill:none;stroke:black;stroke-width:0.5"/>
<polyline points="39.31,376.43 49.18,376.43" style="fill:none;stroke:black;stroke-width:0.5"/>
<polyline points="51.87,381.63 52.72,382.75 53.75,383.71 54.94,384.47 56.23,385.01" style="fill:none;stroke:black;stroke-width:0.5"/>
<polyline points="51.87,381.63 52.17,382.87 52.73,384.02 53.52,385.01" style="fill:none;stroke:black;stroke-width:0.5"/>
<polyline points="56.23,385.01 87.39,385.01" style="fill:none;stroke:black;stroke-width:0.5"/>
<polyline points="30.88,367.56 36.23,377.15" style="fill:none;stroke:black;stroke-width:0.5"/>
<polyline points="51.67,368.72 48.93,369.8 46.31,371.12 43.82,372.68 41.48,374.45 39.31,376.43" style="fill:none;stroke:black;stroke-width:0.5"/>
<polyline points="54.36,368.61 54.35,366.57 54,364.56 53.33,362.63 52.35,360.84 51.09,359.24 49.59,357.86 47.88,356.75 46.01,355.93 44.03,355.42" style="fill:none;stroke:black;stroke-width:0.5"/>
<polyline points="54.36,368.61 54.36,368.61" style="fill:none;stroke:black;stroke-width:0.5"/>
<polyline points="54.36,368.61 54.36,371.46" style="fill:none;stroke:black;stroke-width:0.5"/>
<polyline points="49.18,376.43 50.48,376.23 51.69,375.73 52.74,374.95 53.56,373.93 54.12,372.74 54.36,371.46" style="fill:none;stroke:black;stroke-width:0.5"/>
<polyline points="30.88,367.56 28.66,366.35 26.29,365.49 23.82,364.97 21.3,364.81" style="fill:none;stroke:black;stroke-width:0.5"/>
<polyline points="21.3,364.81 16.02,364.81" style="fill:none;stroke:black;stroke-width:0.5"/>
<polyline points="19.19,367.56 16.02,364.81" style="fill:none;stroke:black;stroke-width:0.5"/>
<polyline points="24.28,367.56 26.86,374.89" style="fill:none;stroke:black;stroke-width:0.5"/>
<polyline points="26.5,373.88 24.62,374.74 22.87,375.83 21.28,377.15" style="fill:none;stroke:black;stroke-width:0.5"/>
<polyline points="27.77,375.27 31.12,373.8" style="fill:none;stroke:black;stroke-width:0.5"/>
<polyline points="31.12,373.8 29.03,367.56" style="fill:none;stroke:black;stroke-width:0.5"/>
<polyline points="31.12,373.8 34.36,373.8" style="fill:none;stroke:black;stroke-width:0.5"/>
<polyline points="26.83,374.81 27.04,375.15 27.4,375.31 27.8,375.26" style="fill:none;stroke:black;stroke-width:0.5"/>
<polyline points="52.74,374.95 53.18,373.67 53.3,372.33 53.07,371 52.51,369.77 51.67,368.72" style="fill:none;stroke:black;stroke-width:0.5"/>
<polyline points="53.06,369.83 53.26,369.65 53.42,369.17 53.49,368.49 53.47,367.76 53.35,367.16 53.16,366.82 52.95,366.82 52.76,367.16 52.64,367.76 52.62,368.49 52.69,369.17 52.85,369.65 53.06,369.83" style="fill:none;stroke:black;stroke-width:0.5"/>
<polyline points="11.55,338.93 11.49,343.34 11.75,347.74 12.34,352.12 13.25,356.43 14.48,360.67 16.02,364.81" style="fill:none;stroke:black;stroke-width:0.5"/>
<polyline points="23.57,333.29 20.9,333.74 18.33,334.55 15.88,335.7 13.61,337.17 11.55,338.93" style="fill:none;stroke:black;stroke-width:0.5"/>
<polyline points="21,298.19 20.88,305.26 21.15,312.33 21.81,319.37 22.86,326.36 24.3,333.29" style="fill:none;stroke:black;stroke-width:0.5"/>
<polyline points="35.1,331.02 32.86,330.92 30.62,331.1 28.43,331.56 26.31,332.3 24.3,333.29" style="fill:none;stroke:black;stroke-width:0.5"/>
<polyline points="32.19,304.07 35.1,331.02" style="fill:none;stroke:black;stroke-width:0.5"/>
<polyline points="35.1,331.02 32.19,304.07" style="fill:none;stroke:black;stroke-width:0.5"/>
<polyline points="32.19,304.08 30.78,302.41 29.13,300.98 27.29,299.82 25.29,298.96 23.17,298.41 21,298.19" style="fill:none;stroke:black;stroke-width:0.5"/>
<polyline points="32.19,304.07 31.05,302.04 29.58,300.24 27.84,298.69 25.87,297.45 23.73,296.56 21.46,296.02 19.14,295.86" style="fill:none;stroke:black;stroke-width:0.5"/>
<polyline points="19.94,297.08 20.08,297.62 20.47,298.03 21,298.19" style="fill:none;stroke:black;stroke-width:0.5"/>
<polyline points="19.94,297.08 19.94,295.87" style="fill:none;stroke:black;stroke-width:0.5"/>
<polyline points="21.29,295.99 21.1,295.97" style="fill:none;stroke:black;stroke-width:0.5"/>
<polyline points="26.75,289.4 24.01,291.31 21.47,293.47 19.14,295.86" style="fill:none;stroke:black;stroke-width:0.5"/>
<polyline points="188.76,259.97 190.38,260.04 191.99,259.84 193.54,259.37 194.98,258.65 196.29,257.69" style="fill:none;stroke:black;stroke-width:0.5"/>
<polyline points="188.76,259.97 179.57,260.41 170.39,260.98" style="fill:none;stroke:black;stroke-width:0.5"/>
<polyline points="43.5,282.1 38.92,283.49 34.46,285.25 30.17,287.37 26.07,289.84" style="fill:none;stroke:black;stroke-width:0.5"/>
<polyline points="170.37,261.81 170.54,261.45 170.46,261.07 170.15,260.81 169.75,260.79" style="fill:none;stroke:black;stroke-width:0.5"/>
<polyline points="170.37,261.81 170.2,262.08" style="fill:none;stroke:black;stroke-width:0.5"/>
<polyline points="169.75,260.79 169.45,260.82" style="fill:none;stroke:black;stroke-width:0.5"/>
<polyline points="169.45,260.82 168.94,260.97 168.6,261.37 168.57,261.9 168.84,262.35 169.32,262.56 169.83,262.46 170.2,262.08" style="fill:none;stroke:black;stroke-width:0.5"/>
<polyline points="168.79,261.09 152.94,262.41 137.12,264.1 121.36,266.17 105.64,268.62 89.99,271.43 74.41,274.62 58.91,278.18 43.5,282.1" style="fill:none;stroke:black;stroke-width:0.5"/>
<polyline points="196.29,257.69 202.1,257.69" style="fill:none;stroke:black;stroke-width:0.5"/>
<polyline points="202.1,257.69 206.61,258.93 211.18,259.93 215.79,260.7 220.44,261.22" style="fill:none;stroke:black;stroke-width:0.5"/>
<polyline points="229.48,261.54 430.95,260.31" style="fill:none;stroke:black;stroke-width:0.5"/>
<polyline points="428.25,265.12 255.28,268.76" style="fill:none;stroke:black;stroke-width:0.5"/>
<polyline points="255.28,268.76 264.72,261.32" style="fill:none;stroke:black;stroke-width:0.5"/>
<polyline points="222.38,265.04 224.38,264.7 226.27,263.98 227.99,262.91 229.48,261.54" style="fill:none;stroke:black;stroke-width:0.5"/>
<polyline points="222.38,265.04 203.33,265.89 184.29,267.12 165.29,268.72 146.32,270.7 127.39,273.06 108.52,275.8" style="fill:none;stroke:black;stroke-width:0.5"/>
<polyline points="108.52,275.8 100.57,277.24 92.7,279.05 84.93,281.23 77.26,283.77" style="fill:none;stroke:black;stroke-width:0.5"/>
<polyline points="73.71,283.77 68.73,284.81 63.84,286.21 59.06,287.96" style="fill:none;stroke:black;stroke-width:0.5"/>
<polyline points="54.31,287.9 55.46,288.3 56.67,288.45 57.89,288.33 59.06,287.96" style="fill:none;stroke:black;stroke-width:0.5"/>
<polyline points="54.31,287.9 41.62,282.62" style="fill:none;stroke:black;stroke-width:0.5"/>
<polyline points="82.68,284.79 79.74,284.08 76.74,283.74 73.71,283.77" style="fill:none;stroke:black;stroke-width:0.5"/>
<polyline points="82.68,284.79 95.63,307.96" style="fill:none;stroke:black;stroke-width:0.5"/>
<polyline points="95.63,307.96 114.76,307.96" style="fill:none;stroke:black;stroke-width:0.5"/>
<polyline points="255.28,268.76 253.28,277.29 251.64,285.91 250.35,294.58 249.43,303.3 248.87,312.05 248.68,320.82 248.86,329.58 249.4,338.33 250.3,347.06 251.57,355.73 253.2,364.35 255.18,372.89 257.52,381.34 260.21,389.68" style="fill:none;stroke:black;stroke-width:0.5"/>
<polyline points="231.27,320.84 245.22,320.84" style="fill:none;stroke:black;stroke-width:0.5"/>
<polyline points="245.22,320.84 245.22,324.75" style="fill:none;stroke:black;stroke-width:0.5"/>
<polyline points="245.22,324.75 231.27,324.75" style="fill:none;stroke:black;stroke-width:0.5"/>
<polyline points="231.27,320.84 231.27,324.75" style="fill:none;stroke:black;stroke-width:0.5"/>
<polyline points="255.28,268.76 239.49,268.55 223.7,268.67 207.91,269.14 192.13,269.93 176.38,271.06 160.65,272.52 144.96,274.31 129.31,276.44 113.71,278.89 98.16,281.67 82.68,284.79" style="fill:none;stroke:black;stroke-width:0.5"/>
<polyline points="82.68,284.79 78.74,286.26 74.93,288.06 71.28,290.15" style="fill:none;stroke:black;stroke-width:0.5"/>
<polyline points="71.28,290.15 70.1,290.92 69.1,291.91 68.31,293.08" style="fill:none;stroke:black;stroke-width:0.5"/>
<polyline points="68.31,293.08 67.11,295.89 66.2,298.81 65.58,301.8 65.26,304.84" style="fill:none;stroke:black;stroke-width:0.5"/>
<polyline points="65.26,304.84 64.65,310.4 64.38,315.98 64.45,321.57" style="fill:none;stroke:black;stroke-width:0.5"/>
<polyline points="73.77,321.07 42.23,322.77" style="fill:none;stroke:black;stroke-width:0.5"/>
<polyline points="72.92,296.36 78.57,313.4" style="fill:none;stroke:black;stroke-width:0.5"/>
<polyline points="40.53,307.33 40.42,321.28" style="fill:none;stroke:black;stroke-width:0.5"/>
<polyline points="37.44,306.48 36.7,320.87" style="fill:none;stroke:black;stroke-width:0.5"/>
<polyline points="66.32,323.11 39.74,324.54" style="fill:none;stroke:black;stroke-width:0.5"/>
<polyline points="78.66,317.46 78.93,316.11 78.9,314.73 78.57,313.4" style="fill:none;stroke:black;stroke-width:0.5"/>
<polyline points="73.74,322.06 75.04,321.56 76.23,320.82 77.25,319.86 78.07,318.73 78.66,317.46" style="fill:none;stroke:black;stroke-width:0.5"/>
<polyline points="66.32,323.11 70.04,322.7 73.74,322.06" style="fill:none;stroke:black;stroke-width:0.5"/>
<polyline points="73.77,321.07 75.31,320.89 76.76,320.36" style="fill:none;stroke:black;stroke-width:0.5"/>
<polyline points="40.42,321.28 40.57,321.93 40.98,322.45 41.57,322.75 42.23,322.77" style="fill:none;stroke:black;stroke-width:0.5"/>
<polyline points="36.7,320.87 36.73,321.94 37.1,322.93 37.78,323.76 38.69,324.31 39.74,324.54" style="fill:none;stroke:black;stroke-width:0.5"/>
<polyline points="65.19,293.73 60.39,294.2 55.64,295 50.95,296.11 46.35,297.54 41.85,299.27" style="fill:none;stroke:black;stroke-width:0.5"/>
<polyline points="41.85,299.27 40.44,300.31 39.25,301.61 38.34,303.1 37.72,304.75 37.44,306.48" style="fill:none;stroke:black;stroke-width:0.5"/>
<polyline points="46.14,300.27 44.67,300.89 43.36,301.79 42.25,302.94 41.38,304.28 40.8,305.76 40.53,307.33" style="fill:none;stroke:black;stroke-width:0.5"/>
<polyline points="65.26,295.16 60.34,295.85 55.5,296.95 50.75,298.42 46.14,300.27" style="fill:none;stroke:black;stroke-width:0.5"/>
<polyline points="72.92,296.36 71.7,295.15 70.23,294.25 68.6,293.69 66.89,293.51 65.19,293.73" style="fill:none;stroke:black;stroke-width:0.5"/>
<polyline points="72.92,296.36 71.12,295.53 69.21,295.04 67.23,294.91 65.26,295.16" style="fill:none;stroke:black;stroke-width:0.5"/>
<polyline points="27.69,301.49 27.92,303.43" style="fill:none;stroke:black;stroke-width:0.5"/>
<polyline points="27.69,301.49 29.78,301.49" style="fill:none;stroke:black;stroke-width:0.5"/>
<polyline points="27.92,303.43 31.7,303.43" style="fill:none;stroke:black;stroke-width:0.5"/>
<polyline points="28.13,305.27 32.32,305.27" style="fill:none;stroke:black;stroke-width:0.5"/>
<polyline points="28.36,307.22 32.53,307.22" style="fill:none;stroke:black;stroke-width:0.5"/>
<polyline points="28.53,308.72 32.69,308.72" style="fill:none;stroke:black;stroke-width:0.5"/>
<polyline points="28.76,310.67 32.9,310.67" style="fill:none;stroke:black;stroke-width:0.5"/>
<polyline points="29.89,320.37 33.95,320.37" style="fill:none;stroke:black;stroke-width:0.5"/>
<polyline points="30.12,322.32 34.22,322.32" style="fill:none;stroke:black;stroke-width:0.5"/>
<polyline points="30.29,323.78 34.32,323.78" style="fill:none;stroke:black;stroke-width:0.5"/>
<polyline points="30.51,325.72 34.53,325.72" style="fill:none;stroke:black;stroke-width:0.5"/>
<polyline points="30.69,327.25 34.69,327.25" style="fill:none;stroke:black;stroke-width:0.5"/>
<polyline points="30.92,329.2 34.9,329.2" style="fill:none;stroke:black;stroke-width:0.5"/>
<polyline points="24.45,314.49 24.68,316.43" style="fill:none;stroke:black;stroke-width:0.5"/>
<polyline points="29.89,320.37 30.12,322.32" style="fill:none;stroke:black;stroke-width:0.5"/>
<polyline points="30.69,327.25 30.92,329.2" style="fill:none;stroke:black;stroke-width:0.5"/>
<polyline points="30.29,323.78 30.51,325.72" style="fill:none;stroke:black;stroke-width:0.5"/>
<polyline points="24.68,316.43 33.53,316.43" style="fill:none;stroke:black;stroke-width:0.5"/>
<polyline points="24.45,314.49 33.32,314.49" style="fill:none;stroke:black;stroke-width:0.5"/>
<polyline points="28.13,305.27 28.36,307.22" style="fill:none;stroke:black;stroke-width:0.5"/>
<polyline points="28.53,308.72 28.76,310.67" style="fill:none;stroke:black;stroke-width:0.5"/>
<polyline points="51.67,368.72 52.04,366.56 52.18,364.37 52.08,362.18 51.75,360.01" style="fill:none;stroke:black;stroke-width:0.5"/>
<polyline points="30.45,355.42 35.32,356.71 40.28,357.65 45.29,358.24 50.33,358.48" style="fill:none;stroke:black;stroke-width:0.5"/>
<polyline points="44.03,355.42 40.64,355.05 37.24,354.92 33.83,355.05 30.45,355.42" style="fill:none;stroke:black;stroke-width:0.5"/>
<polyline points="87.85,372.48 87.49,376.65 87.34,380.83 87.39,385.01" style="fill:none;stroke:black;stroke-width:0.5"/>
<polyline points="87.85,372.48 92.1,372.48" style="fill:none;stroke:black;stroke-width:0.5"/>
<polyline points="92.1,372.48 92.75,373.42" style="fill:none;stroke:black;stroke-width:0.5"/>
<polyline points="92.75,373.42 92.75,375.69" style="fill:none;stroke:black;stroke-width:0.5"/>
<polyline points="92.75,375.69 91.97,377.28" style="fill:none;stroke:black;stroke-width:0.5"/>
<polyline points="91.97,377.28 91.97,379.8" style="fill:none;stroke:black;stroke-width:0.5"/>
<polyline points="91.97,379.8 91.97,379.8" style="fill:none;stroke:black;stroke-width:0.5"/>
<polyline points="91.97,379.8 91.68,380.25" style="fill:none;stroke:black;stroke-width:0.5"/>
<polyline points="91.68,380.25 91.68,381.21" style="fill:none;stroke:black;stroke-width:0.5"/>
<polyline points="91.68,381.21 93.2,382.73" style="fill:none;stroke:black;stroke-width:0.5"/>
<polyline points="93.2,382.73 94.6,382.73" style="fill:none;stroke:black;stroke-width:0.5"/>
<polyline points="94.6,382.73 94.6,384.3" style="fill:none;stroke:black;stroke-width:0.5"/>
<polyline points="94.6,384.3 96.09,386.32" style="fill:none;stroke:black;stroke-width:0.5"/>
<polyline points="96.09,386.32 100.74,386.32" style="fill:none;stroke:black;stroke-width:0.5"/>
<polyline points="215.73,374.42 547.07,369.6" style="fill:none;stroke:black;stroke-width:0.5"/>
<polyline points="539.56,356.17 227.88,360.91" style="fill:none;stroke:black;stroke-width:0.5"/>
<polyline points="529.22,316.49 427.11,318.1" style="fill:none;stroke:black;stroke-width:0.5"/>
<polyline points="427.11,318.1 427.35,323.41" style="fill:none;stroke:black;stroke-width:0.5"/>
<polyline points="427.35,323.41 526.38,321.44" style="fill:none;stroke:black;stroke-width:0.5"/>
<polyline points="428.25,265.12 426.97,276.91 426.08,288.73 425.57,300.57 425.45,312.43 425.72,324.28 426.38,336.12 427.42,347.93 428.85,359.7 430.66,371.41" style="fill:none;stroke:black;stroke-width:0.5"/>
<polyline points="424.29,317.93 424.41,323.26" style="fill:none;stroke:black;stroke-width:0.5"/>
<polyline points="424.17,317.93 253.95,320.71" style="fill:none;stroke:black;stroke-width:0.5"/>
<polyline points="261.35,324.84 424.41,323.26" style="fill:none;stroke:black;stroke-width:0.5"/>
<polyline points="253.95,320.71 255.05,322.09 256.39,323.23 257.93,324.09 259.6,324.63 261.35,324.84" style="fill:none;stroke:black;stroke-width:0.5"/>
<polyline points="536.43,318.44 534.12,317.48 531.7,316.83 529.22,316.49" style="fill:none;stroke:black;stroke-width:0.5"/>
<polyline points="526.38,321.44 529.02,321.23 531.62,320.66 534.1,319.72 536.43,318.44" style="fill:none;stroke:black;stroke-width:0.5"/>
<polyline points="417.73,271.95 417.4,270.98 416.82,270.14 416.05,269.47 415.12,269.04 414.11,268.87" style="fill:none;stroke:black;stroke-width:0.5"/>
<polyline points="411.81,281.59 413.27,281.44 414.65,280.94 415.87,280.13 416.86,279.05 417.57,277.76" style="fill:none;stroke:black;stroke-width:0.5"/>
<polyline points="417.73,271.95 417.57,277.76" style="fill:none;stroke:black;stroke-width:0.5"/>
<polyline points="393.69,281.56 399.74,281.87 405.8,281.88 411.86,281.59" style="fill:none;stroke:black;stroke-width:0.5"/>
<polyline points="387.26,277.45 388.16,278.76 389.3,279.86 390.64,280.72 392.13,281.29 393.69,281.56" style="fill:none;stroke:black;stroke-width:0.5"/>
<polyline points="414.11,268.87 393.41,269.15" style="fill:none;stroke:black;stroke-width:0.5"/>
<polyline points="411.84,276.1 412.01,275.39 412.5,274.84 413.19,274.58 413.91,274.67 414.52,275.09 414.86,275.74 414.86,276.47 414.52,277.12 413.91,277.54 413.19,277.62 412.5,277.36 412.01,276.81 411.84,276.1" style="fill:none;stroke:black;stroke-width:0.5"/>
<polyline points="413.15,275.23 413.58,275.23" style="fill:none;stroke:black;stroke-width:0.5"/>
<polyline points="413.58,275.23 413.58,277.16" style="fill:none;stroke:black;stroke-width:0.5"/>
<polyline points="413.58,277.16 413.15,277.16" style="fill:none;stroke:black;stroke-width:0.5"/>
<polyline points="413.15,275.23 413.15,277.16" style="fill:none;stroke:black;stroke-width:0.5"/>
<polyline points="389.7,274.35 396.54,274.81 403.39,274.98 410.25,274.83" style="fill:none;stroke:black;stroke-width:0.5"/>
<polyline points="392.78,270.99 391.84,271.27 391,271.78 390.34,272.51 389.89,273.38 389.7,274.35" style="fill:none;stroke:black;stroke-width:0.5"/>
<polyline points="408.03,271.21 405.03,270.43 401.97,270.01 398.87,269.97 395.79,270.3 392.78,270.99" style="fill:none;stroke:black;stroke-width:0.5"/>
<polyline points="410.25,274.83 410.1,273.73 409.66,272.7 408.95,271.84 408.03,271.21" style="fill:none;stroke:black;stroke-width:0.5"/>
<polyline points="389.7,274.35 389.9,275.72 390.42,277 391.23,278.12 392.29,279.01 393.54,279.62 394.89,279.91" style="fill:none;stroke:black;stroke-width:0.5"/>
<polyline points="394.89,279.91 398.62,280.19 402.35,280.22 406.08,280.02" style="fill:none;stroke:black;stroke-width:0.5"/>
<polyline points="406.08,280.02 407.35,279.86 408.51,279.32 409.46,278.46 410.09,277.35 410.37,276.1 410.25,274.83" style="fill:none;stroke:black;stroke-width:0.5"/>
<polyline points="393.41,269.15 392.14,269.23 390.92,269.58 389.8,270.19 388.85,271.02 388.1,272.05 387.59,273.21" style="fill:none;stroke:black;stroke-width:0.5"/>
<polyline points="387.59,273.21 387.11,274.58 386.99,276.03 387.26,277.45" style="fill:none;stroke:black;stroke-width:0.5"/>
<polyline points="231.82,324.1 231.82,321.4" style="fill:none;stroke:black;stroke-width:0.5"/>
<polyline points="233.62,321.4 233.62,324.1" style="fill:none;stroke:black;stroke-width:0.5"/>
<polyline points="231.82,322.69 233.62,322.69" style="fill:none;stroke:black;stroke-width:0.5"/>
<polyline points="234.65,324.1 234.65,321.4 236.32,321.4" style="fill:none;stroke:black;stroke-width:0.5"/>
<polyline points="234.65,322.69 235.68,322.69" style="fill:none;stroke:black;stroke-width:0.5"/>
<polyline points="234.65,324.1 236.32,324.1" style="fill:none;stroke:black;stroke-width:0.5"/>
<polyline points="237.09,324.1 237.09,321.4 238.12,324.1 239.15,321.4 239.15,324.1" style="fill:none;stroke:black;stroke-width:0.5"/>
<polyline points="240.18,324.1 240.18,321.4" style="fill:none;stroke:black;stroke-width:0.5"/>
<polyline points="208.63,255.67 207.19,255.95 205.83,256.49 204.6,257.27 203.54,258.27" style="fill:none;stroke:black;stroke-width:0.5"/>
<polyline points="212.45,255.74 210.54,255.57 208.63,255.67" style="fill:none;stroke:black;stroke-width:0.5"/>
<polyline points="220.44,261.22 219.24,259.63 217.8,258.26 216.16,257.13 214.36,256.29 212.45,255.74" style="fill:none;stroke:black;stroke-width:0.5"/>
<polyline points="216.22,253.65 221.43,259.51" style="fill:none;stroke:black;stroke-width:0.5"/>
<polyline points="220.44,261.22 221.04,261.1 221.49,260.68 221.63,260.09 221.43,259.51" style="fill:none;stroke:black;stroke-width:0.5"/>
<polyline points="220.47,261.22 224.97,261.49 229.48,261.54" style="fill:none;stroke:black;stroke-width:0.5"/>
<polyline points="216.22,253.65 215.57,253.31 214.84,253.22 214.13,253.37 213.51,253.76" style="fill:none;stroke:black;stroke-width:0.5"/>
<polyline points="213.51,253.76 213.03,254.34 212.74,255.04 212.67,255.78" style="fill:none;stroke:black;stroke-width:0.5"/>
<polyline points="211.73,255.64 212.02,257.04 212.58,258.35 213.4,259.52 214.44,260.5" style="fill:none;stroke:black;stroke-width:0.5"/>
<polyline points="307.97,201.68 294.68,208.56 281.58,215.79 268.67,223.36 255.96,231.26 243.46,239.5 231.18,248.05 219.12,256.92" style="fill:none;stroke:black;stroke-width:0.5"/>
<polyline points="217.58,258.09 214.44,260.5" style="fill:none;stroke:black;stroke-width:0.5"/>
<polyline points="206.23,256.3 206.67,257.17 207.38,257.83 208.28,258.21 209.25,258.27 210.19,257.98 210.97,257.4 211.5,256.59 211.73,255.64" style="fill:none;stroke:black;stroke-width:0.5"/>
<polyline points="213.06,259.09 212.11,258.44 211,258.1 209.84,258.13 208.75,258.52 207.83,259.22" style="fill:none;stroke:black;stroke-width:0.5"/>
<polyline points="329.38,206.82 323.76,205.35 318.1,204.11 312.38,203.11 306.63,202.35" style="fill:none;stroke:black;stroke-width:0.5"/>
<polyline points="332.83,206.88 326.71,205.15 320.52,203.71 314.26,202.55 307.97,201.68" style="fill:none;stroke:black;stroke-width:0.5"/>
<polyline points="329.38,206.82 319.31,212.75 309.4,218.94 299.66,225.39 290.1,232.1 280.71,239.06 271.51,246.26 262.51,253.71 253.71,261.39" style="fill:none;stroke:black;stroke-width:0.5"/>
<polyline points="332.83,206.88 322.66,212.78 312.65,218.95 302.8,225.39 293.13,232.08 283.65,239.04 274.35,246.24 265.25,253.69 256.35,261.37" style="fill:none;stroke:black;stroke-width:0.5"/>
<polyline points="363.13,190.13 356.18,190.44 349.26,191.09 342.38,192.07 335.55,193.37 328.8,195.01 322.13,196.96 315.56,199.23 309.1,201.81" style="fill:none;stroke:black;stroke-width:0.5"/>
<polyline points="303.35,232.13 293.87,239.02 284.6,246.19 275.53,253.62 266.68,261.31" style="fill:none;stroke:black;stroke-width:0.5"/>
<polyline points="332.74,212.12 325.14,216.74 317.7,221.62 310.44,226.75 303.35,232.13" style="fill:none;stroke:black;stroke-width:0.5"/>
<polyline points="359.69,203.54 355,204.23 350.36,205.22 345.79,206.51 341.32,208.09 336.97,209.97 332.74,212.12" style="fill:none;stroke:black;stroke-width:0.5"/>
<polyline points="399.92,200.68 386.48,201.24 373.07,202.19 359.69,203.54" style="fill:none;stroke:black;stroke-width:0.5"/>
<polyline points="399.92,200.68 443.75,201.13" style="fill:none;stroke:black;stroke-width:0.5"/>
<polyline points="354.8,198.26 349.71,199.1 344.7,200.31 339.79,201.9 335.01,203.85 330.4,206.16" style="fill:none;stroke:black;stroke-width:0.5"/>
<polyline points="311.39,236.71 308.54,236.69 305.69,236.95 302.89,237.5 300.15,238.32 297.51,239.4 294.98,240.74" style="fill:none;stroke:black;stroke-width:0.5"/>
<polyline points="317.47,244.3 317.47,242.76 317.13,241.26 316.46,239.87 315.5,238.67 314.29,237.71 312.9,237.04 311.39,236.71" style="fill:none;stroke:black;stroke-width:0.5"/>
<polyline points="317.47,252.06 317.53,248.18 317.47,244.3" style="fill:none;stroke:black;stroke-width:0.5"/>
<polyline points="294.98,240.74 293.67,241.4 292.49,242.26 291.47,243.31 290.63,244.51" style="fill:none;stroke:black;stroke-width:0.5"/>
<polyline points="290.63,244.51 290.14,246.01 290.02,247.58 290.27,249.14 290.89,250.59 291.84,251.85" style="fill:none;stroke:black;stroke-width:0.5"/>
<polyline points="291.84,251.85 293.55,253.05 295.46,253.9 297.5,254.4" style="fill:none;stroke:black;stroke-width:0.5"/>
<polyline points="297.5,254.4 301.54,254.98 305.62,255.33 309.7,255.45 313.79,255.33" style="fill:none;stroke:black;stroke-width:0.5"/>
<polyline points="313.79,255.33 314.86,255.18 315.83,254.73 316.64,254.02 317.2,253.1 317.47,252.06" style="fill:none;stroke:black;stroke-width:0.5"/>
<polyline points="285.62,256.29 288.5,257.56 291.5,258.53 294.58,259.18 297.71,259.52 300.86,259.53 303.99,259.21 307.08,258.57 310.08,257.61 312.97,256.35 315.71,254.8" style="fill:none;stroke:black;stroke-width:0.5"/>
<polyline points="300.71,259.53 300.78,261.1" style="fill:none;stroke:black;stroke-width:0.5"/>
<polyline points="309.9,257.68 433.05,256.6" style="fill:none;stroke:black;stroke-width:0.5"/>
<polyline points="432.82,206.84 419.45,257.86" style="fill:none;stroke:black;stroke-width:0.5"/>
<polyline points="443.75,201.13 433.05,256.6" style="fill:none;stroke:black;stroke-width:0.5"/>
<polyline points="452.75,206.97 445.03,257.18" style="fill:none;stroke:black;stroke-width:0.5"/>
<polyline points="274.38,261.26 291.55,247.03" style="fill:none;stroke:black;stroke-width:0.5"/>
<polyline points="538.91,201.04 522.27,198.81 505.59,196.97 488.87,195.53 472.11,194.49 455.34,193.84 438.55,193.59 421.77,193.73 404.99,194.27 388.23,195.2 371.5,196.53 354.8,198.26" style="fill:none;stroke:black;stroke-width:0.5"/>
<polyline points="577.4,222.82 566.71,218.96 555.91,215.46 544.99,212.32 533.97,209.56 522.86,207.17 511.68,205.16 500.43,203.53 489.14,202.28 477.81,201.42 466.46,200.94 455.1,200.84 443.75,201.13" style="fill:none;stroke:black;stroke-width:0.5"/>
<polyline points="586.84,229.81 584.85,227.6 582.59,225.68 580.09,224.08 577.4,222.82" style="fill:none;stroke:black;stroke-width:0.5"/>
<polyline points="587.99,234.4 588.04,233.19 587.86,232 587.45,230.85 586.84,229.81" style="fill:none;stroke:black;stroke-width:0.5"/>
<polyline points="586.41,254.04 587.15,247.51 587.68,240.96 587.99,234.4" style="fill:none;stroke:black;stroke-width:0.5"/>
<polyline points="580.75,291.33 583.73,272.71 586.41,254.04" style="fill:none;stroke:black;stroke-width:0.5"/>
<polyline points="576.1,297.38 577.67,296.23 579,294.8 580.04,293.15 580.75,291.33" style="fill:none;stroke:black;stroke-width:0.5"/>
<polyline points="684.87,362.61 684.83,357.31 684.4,352.02 683.6,346.78 682.41,341.62 680.85,336.55 678.92,331.61 676.64,326.82 674.01,322.22 671.06,317.81 667.8,313.64 664.23,309.71 660.4,306.05 656.3,302.68 651.97,299.62 647.43,296.88 642.71,294.48 637.82,292.43 632.79,290.74 627.65,289.42 622.44,288.48 617.16,287.93 611.86,287.76 606.57,287.97 601.3,288.57 596.09,289.55 590.96,290.91 585.95,292.64 581.08,294.73 576.37,297.17 571.85,299.95 567.55,303.04 563.48,306.45 559.68,310.14 556.15,314.09 552.92,318.3 550,322.72 547.41,327.35 545.17,332.16 543.29,337.11 541.77,342.19 540.62,347.37 539.85,352.62 539.47,357.9 539.48,363.21" style="fill:none;stroke:black;stroke-width:0.5"/>
<polyline points="677.34,361.93 677.25,356.88 676.78,351.85 675.92,346.87 674.67,341.97 673.04,337.18 671.06,332.53 668.71,328.05 666.03,323.77 663.02,319.71 659.71,315.89 656.11,312.34 652.25,309.08 648.14,306.13 643.82,303.5 639.31,301.22 634.64,299.3 629.83,297.74 624.91,296.56 619.92,295.76 614.88,295.36 609.83,295.34 604.79,295.72 599.79,296.48 594.87,297.63 590.05,299.16 585.36,301.06 580.84,303.32 576.5,305.91 572.38,308.84 568.5,312.08 564.88,315.61 561.55,319.41 558.51,323.45 555.81,327.72 553.44,332.18 551.42,336.82 549.77,341.6 548.49,346.49 547.6,351.46 547.09,356.49 546.98,361.55" style="fill:none;stroke:black;stroke-width:0.5"/>
<polyline points="556.92,360.49 557.12,355.81 557.71,351.15 558.7,346.57 560.07,342.09 561.82,337.74 563.93,333.55 566.39,329.56 569.18,325.79 572.28,322.27 575.66,319.02 579.31,316.08 583.2,313.45 587.29,311.16 591.56,309.23 595.99,307.67 600.52,306.49 605.15,305.69 609.82,305.3 614.51,305.3 619.18,305.69 623.8,306.49 628.34,307.67 632.76,309.23 637.03,311.16 641.13,313.45 645.01,316.08 648.66,319.02 652.05,322.27 655.14,325.79 657.93,329.56 660.39,333.55 662.5,337.74 664.25,342.09 665.62,346.57 666.61,351.15 667.21,355.81 667.41,360.49 667.21,365.18 666.61,369.83 665.62,374.41 664.25,378.89 662.5,383.25 660.39,387.43 657.93,391.43 655.14,395.2 652.05,398.72 648.66,401.96 645.01,404.91 641.13,407.53 637.03,409.82 632.76,411.75 628.34,413.31 623.8,414.49 619.18,415.29 614.51,415.68 609.82,415.68 605.15,415.29 600.52,414.49 595.99,413.31 591.56,411.75 587.29,409.82 583.2,407.53 579.31,404.91 575.66,401.96 572.28,398.72 569.18,395.2 566.39,391.43 563.93,387.43 561.82,383.25 560.07,378.89 558.7,374.41 557.71,369.83 557.12,365.18 556.92,360.49" style="fill:none;stroke:black;stroke-width:0.5"/>
<polyline points="637.91,342.72 636,340.23 633.85,337.94 631.49,335.89 628.93,334.07 626.2,332.53 623.33,331.26 620.35,330.29" style="fill:none;stroke:black;stroke-width:0.5"/>
<polyline points="619.53,328.26 619.53,346.61" style="fill:none;stroke:black;stroke-width:0.5"/>
<polyline points="611.59,329.21 611.59,345.47" style="fill:none;stroke:black;stroke-width:0.5"/>
<polyline points="612.8,345.57 612.8,329.21" style="fill:none;stroke:black;stroke-width:0.5"/>
<polyline points="603.66,330.38 600.67,331.39 597.81,332.69 595.08,334.28 592.53,336.13 590.18,338.23 588.05,340.55 586.17,343.07" style="fill:none;stroke:black;stroke-width:0.5"/>
<polyline points="613.62,345.92 613.62,327.41" style="fill:none;stroke:black;stroke-width:0.5"/>
<polyline points="610.77,327.26 610.77,345.84" style="fill:none;stroke:black;stroke-width:0.5"/>
<polyline points="604.47,328.41 604.47,347.76" style="fill:none;stroke:black;stroke-width:0.5"/>
<polyline points="573.93,360.49 574.13,356.62 574.71,352.79 575.68,349.05 577.03,345.41 578.73,341.94 580.78,338.65 583.15,335.59 585.82,332.78 588.76,330.26 591.94,328.04 595.32,326.16 598.88,324.64 602.58,323.48 606.37,322.7 610.23,322.31 614.1,322.31 617.95,322.7 621.75,323.48 625.44,324.64 629,326.16 632.39,328.04 635.57,330.26 638.5,332.78 641.17,335.59 643.54,338.65 645.59,341.94 647.3,345.41 648.64,349.05 649.61,352.79 650.2,356.62 650.4,360.49 650.2,364.36 649.61,368.19 648.64,371.94 647.3,375.57 645.59,379.05 643.54,382.33 641.17,385.4 638.5,388.2 635.57,390.72 632.39,392.94 629,394.82 625.44,396.34 621.75,397.5 617.95,398.28 614.1,398.68 610.23,398.68 606.37,398.28 602.58,397.5 598.88,396.34 595.32,394.82 591.94,392.94 588.76,390.72 585.82,388.2 583.15,385.4 580.78,382.33 578.73,379.05 577.03,375.57 575.68,371.94 574.71,368.19 574.13,364.36 573.93,360.49" style="fill:none;stroke:black;stroke-width:0.5"/>
<polyline points="575.93,360.49 576.13,356.7 576.72,352.96 577.7,349.29 579.06,345.75 580.78,342.37 582.85,339.19 585.24,336.25 587.92,333.56 590.87,331.18 594.05,329.11 597.43,327.39 600.97,326.03 604.63,325.05 608.38,324.46 612.16,324.26 615.95,324.46 619.7,325.05 623.36,326.03 626.9,327.39 630.28,329.11 633.46,331.18 636.41,333.56 639.09,336.25 641.48,339.19 643.54,342.37 645.26,345.75 646.62,349.29 647.6,352.96 648.2,356.7 648.4,360.49 648.2,364.28 647.6,368.02 646.62,371.69 645.26,375.23 643.54,378.61 641.48,381.79 639.09,384.74 636.41,387.42 633.46,389.8 630.28,391.87 626.9,393.59 623.36,394.95 619.7,395.93 615.95,396.53 612.16,396.72 608.38,396.53 604.63,395.93 600.97,394.95 597.43,393.59 594.05,391.87 590.87,389.8 587.92,387.42 585.24,384.74 582.85,381.79 580.78,378.61 579.06,375.23 577.7,371.69 576.72,368.02 576.13,364.28 575.93,360.49" style="fill:none;stroke:black;stroke-width:0.5"/>
<polyline points="601.73,357.37 601.91,356.46 602.43,355.68 603.21,355.16 604.12,354.98 605.04,355.16 605.82,355.68 606.33,356.46 606.52,357.37 606.33,358.29 605.82,359.06 605.04,359.58 604.12,359.77 603.21,359.58 602.43,359.06 601.91,358.29 601.73,357.37" style="fill:none;stroke:black;stroke-width:0.5"/>
<polyline points="602.54,357.37 602.73,356.64 603.23,356.07 603.93,355.81 604.68,355.9 605.31,356.33 605.66,357 605.66,357.75 605.31,358.42 604.68,358.85 603.93,358.94 603.23,358.67 602.73,358.11 602.54,357.37" style="fill:none;stroke:black;stroke-width:0.5"/>
<polyline points="604.47,347.76 602.24,349.21" style="fill:none;stroke:black;stroke-width:0.5"/>
<polyline points="603.66,347.32 602.13,348.32" style="fill:none;stroke:black;stroke-width:0.5"/>
<polyline points="601.96,371.72 604.16,371.24" style="fill:none;stroke:black;stroke-width:0.5"/>
<polyline points="602.44,372.45 603.35,372.25" style="fill:none;stroke:black;stroke-width:0.5"/>
<polyline points="593.96,385.94 603.35,373.04" style="fill:none;stroke:black;stroke-width:0.5"/>
<polyline points="593.79,387.56 604.16,373.3" style="fill:none;stroke:black;stroke-width:0.5"/>
<polyline points="611.6,376.43 601.52,389.91" style="fill:none;stroke:black;stroke-width:0.5"/>
<polyline points="611.19,375.62 599.2,391.67" style="fill:none;stroke:black;stroke-width:0.5"/>
<polyline points="601.52,389.91 604.59,390.85 607.74,391.46 610.93,391.75 614.14,391.72 617.32,391.35 620.45,390.66 623.49,389.65" style="fill:none;stroke:black;stroke-width:0.5"/>
<polyline points="596.85,365.41 580.92,358.92" style="fill:none;stroke:black;stroke-width:0.5"/>
<polyline points="597.59,364.83 579.11,357.3" style="fill:none;stroke:black;stroke-width:0.5"/>
<polyline points="580.92,358.92 580.92,362.15 581.26,365.37 581.93,368.53 582.92,371.61 584.22,374.57 585.82,377.38 587.71,380" style="fill:none;stroke:black;stroke-width:0.5"/>
<polyline points="587.71,380 597.05,366.81" style="fill:none;stroke:black;stroke-width:0.5"/>
<polyline points="597.05,366.81 596.85,365.41" style="fill:none;stroke:black;stroke-width:0.5"/>
<polyline points="597.9,367.01 597.59,364.83" style="fill:none;stroke:black;stroke-width:0.5"/>
<polyline points="594.63,386.4 597.59,388.18 600.73,389.62" style="fill:none;stroke:black;stroke-width:0.5"/>
<polyline points="593.09,385.29 593.96,385.94" style="fill:none;stroke:black;stroke-width:0.5"/>
<polyline points="587.52,381.68 597.9,367.01" style="fill:none;stroke:black;stroke-width:0.5"/>
<polyline points="588.24,380.66 590.25,382.82 592.45,384.79" style="fill:none;stroke:black;stroke-width:0.5"/>
<polyline points="593.09,385.29 602.44,372.45" style="fill:none;stroke:black;stroke-width:0.5"/>
<polyline points="591.64,385.9 601.96,371.72" style="fill:none;stroke:black;stroke-width:0.5"/>
<polyline points="598.11,354.86 598.52,355.56" style="fill:none;stroke:black;stroke-width:0.5"/>
<polyline points="597.77,355.89 598.52,355.56" style="fill:none;stroke:black;stroke-width:0.5"/>
<polyline points="597.81,356.76 599.68,355.94" style="fill:none;stroke:black;stroke-width:0.5"/>
<polyline points="598.66,354.19 599.68,355.94" style="fill:none;stroke:black;stroke-width:0.5"/>
<polyline points="602.13,348.32 586.17,343.07" style="fill:none;stroke:black;stroke-width:0.5"/>
<polyline points="582.78,349.74 582.43,350.76" style="fill:none;stroke:black;stroke-width:0.5"/>
<polyline points="582.18,351.54 581.4,354.77 580.97,358.06" style="fill:none;stroke:black;stroke-width:0.5"/>
<polyline points="585.71,343.78 584.27,346.32 583.07,348.98" style="fill:none;stroke:black;stroke-width:0.5"/>
<polyline points="582.78,349.74 598.11,354.86" style="fill:none;stroke:black;stroke-width:0.5"/>
<polyline points="582.43,350.76 597.77,355.89" style="fill:none;stroke:black;stroke-width:0.5"/>
<polyline points="581.09,351.17 597.81,356.76" style="fill:none;stroke:black;stroke-width:0.5"/>
<polyline points="582.03,348.63 598.66,354.19" style="fill:none;stroke:black;stroke-width:0.5"/>
<polyline points="602.24,349.21 582.88,342.85" style="fill:none;stroke:black;stroke-width:0.5"/>
<polyline points="611.71,363.34 611.92,363.59 612.23,363.68" style="fill:none;stroke:black;stroke-width:0.5"/>
<polyline points="612.23,363.68 612.55,363.59 612.75,363.34" style="fill:none;stroke:black;stroke-width:0.5"/>
<polyline points="643.39,358.56 627.64,364.64" style="fill:none;stroke:black;stroke-width:0.5"/>
<polyline points="644.03,357.45 626.9,364.05" style="fill:none;stroke:black;stroke-width:0.5"/>
<polyline points="637.02,379.49 638.83,376.86 640.35,374.06 641.59,371.12 642.52,368.06 643.13,364.93 643.42,361.75 643.39,358.56" style="fill:none;stroke:black;stroke-width:0.5"/>
<polyline points="608.07,360.49 608.25,359.28 608.78,358.18 609.61,357.29 610.67,356.68 611.86,356.41 613.07,356.5 614.21,356.94 615.16,357.71 615.85,358.71 616.21,359.88 616.21,361.1 615.85,362.27 615.16,363.28 614.21,364.04 613.07,364.48 611.86,364.57 610.67,364.3 609.61,363.69 608.78,362.8 608.25,361.7 608.07,360.49" style="fill:none;stroke:black;stroke-width:0.5"/>
<polyline points="607.63,360.49 607.81,359.21 608.35,358.04 609.19,357.06 610.28,356.37 611.52,356 612.81,356 614.05,356.37 615.13,357.06 615.98,358.04 616.51,359.21 616.7,360.49 616.51,361.77 615.98,362.94 615.13,363.92 614.05,364.62 612.81,364.98 611.52,364.98 610.28,364.62 609.19,363.92 608.35,362.94 607.81,361.77 607.63,360.49" style="fill:none;stroke:black;stroke-width:0.5"/>
<polyline points="627.41,366.2 637.02,379.49" style="fill:none;stroke:black;stroke-width:0.5"/>
<polyline points="630.27,386.01 631.14,385.37" style="fill:none;stroke:black;stroke-width:0.5"/>
<polyline points="631.14,385.37 621.38,372.71" style="fill:none;stroke:black;stroke-width:0.5"/>
<polyline points="632.59,385.91 621.82,371.95" style="fill:none;stroke:black;stroke-width:0.5"/>
<polyline points="626.56,366.4 638.24,382.57" style="fill:none;stroke:black;stroke-width:0.5"/>
<polyline points="626.9,364.05 626.56,366.4" style="fill:none;stroke:black;stroke-width:0.5"/>
<polyline points="627.64,364.64 627.41,366.2" style="fill:none;stroke:black;stroke-width:0.5"/>
<polyline points="619.68,373.62 619.85,371.67" style="fill:none;stroke:black;stroke-width:0.5"/>
<polyline points="620.52,373.37 620.58,372.6" style="fill:none;stroke:black;stroke-width:0.5"/>
<polyline points="621.82,371.95 619.85,371.67" style="fill:none;stroke:black;stroke-width:0.5"/>
<polyline points="621.38,372.71 620.58,372.6" style="fill:none;stroke:black;stroke-width:0.5"/>
<polyline points="624.28,389.34 627.01,388.03 629.6,386.47" style="fill:none;stroke:black;stroke-width:0.5"/>
<polyline points="630.4,387.51 619.68,373.62" style="fill:none;stroke:black;stroke-width:0.5"/>
<polyline points="630.27,386.01 620.52,373.37" style="fill:none;stroke:black;stroke-width:0.5"/>
<polyline points="623.49,389.65 613.41,376.42" style="fill:none;stroke:black;stroke-width:0.5"/>
<polyline points="624.94,390.2 613.81,375.61" style="fill:none;stroke:black;stroke-width:0.5"/>
<polyline points="615.86,367.46 616.04,366.72 616.54,366.16 617.25,365.89 618,365.98 618.62,366.41 618.97,367.08 618.97,367.83 618.62,368.5 618,368.93 617.25,369.02 616.54,368.75 616.04,368.19 615.86,367.46" style="fill:none;stroke:black;stroke-width:0.5"/>
<polyline points="615.04,367.46 615.23,366.54 615.75,365.76 616.52,365.25 617.44,365.06 618.35,365.25 619.13,365.76 619.65,366.54 619.83,367.46 619.65,368.37 619.13,369.15 618.35,369.67 617.44,369.85 616.52,369.67 615.75,369.15 615.23,368.37 615.04,367.46" style="fill:none;stroke:black;stroke-width:0.5"/>
<polyline points="603.35,373.04 603.35,372.25" style="fill:none;stroke:black;stroke-width:0.5"/>
<polyline points="604.16,373.3 604.16,371.24" style="fill:none;stroke:black;stroke-width:0.5"/>
<polyline points="605.56,367.35 605.74,366.62 606.24,366.05 606.95,365.78 607.7,365.88 608.32,366.3 608.67,366.97 608.67,367.73 608.32,368.4 607.7,368.83 606.95,368.92 606.24,368.65 605.74,368.08 605.56,367.35" style="fill:none;stroke:black;stroke-width:0.5"/>
<polyline points="604.75,367.35 604.93,366.44 605.45,365.66 606.22,365.14 607.14,364.96 608.06,365.14 608.83,365.66 609.35,366.44 609.53,367.35 609.35,368.27 608.83,369.04 608.06,369.56 607.14,369.74 606.22,369.56 605.45,369.04 604.93,368.27 604.75,367.35" style="fill:none;stroke:black;stroke-width:0.5"/>
<polyline points="613.41,376.42 611.6,376.43" style="fill:none;stroke:black;stroke-width:0.5"/>
<polyline points="613.81,375.61 611.19,375.62" style="fill:none;stroke:black;stroke-width:0.5"/>
<polyline points="631.78,384.86 634.26,382.64 636.5,380.16" style="fill:none;stroke:black;stroke-width:0.5"/>
<polyline points="621.6,347.47 637.91,342.72" style="fill:none;stroke:black;stroke-width:0.5"/>
<polyline points="621.38,348.38 640.9,342.7" style="fill:none;stroke:black;stroke-width:0.5"/>
<polyline points="643.08,348.28 626.55,354.42" style="fill:none;stroke:black;stroke-width:0.5"/>
<polyline points="643.95,350.85 627.51,356.95" style="fill:none;stroke:black;stroke-width:0.5"/>
<polyline points="641.54,349.73 627.13,355.07" style="fill:none;stroke:black;stroke-width:0.5"/>
<polyline points="641.89,350.75 627.51,356.08" style="fill:none;stroke:black;stroke-width:0.5"/>
<polyline points="620.35,346.26 621.6,347.47" style="fill:none;stroke:black;stroke-width:0.5"/>
<polyline points="627.51,356.95 625.61,356.23" style="fill:none;stroke:black;stroke-width:0.5"/>
<polyline points="626.55,354.42 625.61,356.23" style="fill:none;stroke:black;stroke-width:0.5"/>
<polyline points="627.13,355.07 626.76,355.8" style="fill:none;stroke:black;stroke-width:0.5"/>
<polyline points="627.51,356.08 626.76,355.8" style="fill:none;stroke:black;stroke-width:0.5"/>
<polyline points="619.08,357.69 619.26,356.95 619.76,356.39 620.47,356.12 621.22,356.21 621.84,356.64 622.19,357.31 622.19,358.06 621.84,358.73 621.22,359.16 620.47,359.25 619.76,358.98 619.26,358.42 619.08,357.69" style="fill:none;stroke:black;stroke-width:0.5"/>
<polyline points="618.27,357.69 618.45,356.77 618.97,355.99 619.75,355.48 620.66,355.29 621.58,355.48 622.35,355.99 622.87,356.77 623.05,357.69 622.87,358.6 622.35,359.38 621.58,359.9 620.66,360.08 619.75,359.9 618.97,359.38 618.45,358.6 618.27,357.69" style="fill:none;stroke:black;stroke-width:0.5"/>
<polyline points="619.53,346.61 621.38,348.38" style="fill:none;stroke:black;stroke-width:0.5"/>
<polyline points="620.35,330.29 620.35,346.26" style="fill:none;stroke:black;stroke-width:0.5"/>
<polyline points="614.32,362.63 614.74,361.54 614.93,360.39 614.89,359.22" style="fill:none;stroke:black;stroke-width:0.5"/>
<polyline points="612.28,346.06 612.8,345.57" style="fill:none;stroke:black;stroke-width:0.5"/>
<polyline points="612.31,347.15 613.62,345.92" style="fill:none;stroke:black;stroke-width:0.5"/>
<polyline points="612.52,361.7 612.7,361.67 612.83,361.55 612.88,361.37" style="fill:none;stroke:black;stroke-width:0.5"/>
<polyline points="612.88,361.37 612.7,361.4 612.56,361.52 612.52,361.7" style="fill:none;stroke:black;stroke-width:0.5"/>
<polyline points="613.25,362.47 613.21,362.94" style="fill:none;stroke:black;stroke-width:0.5"/>
<polyline points="613.98,362.53 613.95,362.29 613.77,362.11 613.52,362.09 613.32,362.23 613.25,362.47" style="fill:none;stroke:black;stroke-width:0.5"/>
<polyline points="614.48,359.26 614.23,358.68 613.71,358.34 613.07,358.34 612.55,358.69" style="fill:none;stroke:black;stroke-width:0.5"/>
<polyline points="613.98,362.4 614.35,361.4 614.52,360.34 614.48,359.27" style="fill:none;stroke:black;stroke-width:0.5"/>
<polyline points="613.98,362.53 613.99,362.67 614.1,362.75 614.24,362.74 614.32,362.63" style="fill:none;stroke:black;stroke-width:0.5"/>
<polyline points="611.92,358.69 612.23,359.02" style="fill:none;stroke:black;stroke-width:0.5"/>
<polyline points="611.92,358.69 611.4,358.34 610.76,358.34 610.24,358.68 609.99,359.26" style="fill:none;stroke:black;stroke-width:0.5"/>
<polyline points="612.23,358.43 611.68,358.01 610.99,357.89 610.33,358.08 609.82,358.56 609.58,359.22" style="fill:none;stroke:black;stroke-width:0.5"/>
<polyline points="611.91,361.72 611.87,361.54 611.73,361.41 611.55,361.39" style="fill:none;stroke:black;stroke-width:0.5"/>
<polyline points="611.55,361.39 611.6,361.56 611.73,361.69 611.91,361.72" style="fill:none;stroke:black;stroke-width:0.5"/>
<polyline points="609.99,359.27 609.95,360.34 610.12,361.4 610.49,362.4" style="fill:none;stroke:black;stroke-width:0.5"/>
<polyline points="611.22,362.47 611.26,362.94" style="fill:none;stroke:black;stroke-width:0.5"/>
<polyline points="611.22,362.47 611.15,362.23 610.95,362.09 610.7,362.11 610.52,362.29 610.49,362.53" style="fill:none;stroke:black;stroke-width:0.5"/>
<polyline points="610.15,362.63 610.23,362.74 610.37,362.75 610.47,362.67 610.49,362.53" style="fill:none;stroke:black;stroke-width:0.5"/>
<polyline points="609.58,359.22 609.54,360.39 609.73,361.54 610.15,362.63" style="fill:none;stroke:black;stroke-width:0.5"/>
<polyline points="603.66,330.38 603.66,347.32" style="fill:none;stroke:black;stroke-width:0.5"/>
<polyline points="611.59,345.47 612.28,346.06" style="fill:none;stroke:black;stroke-width:0.5"/>
<polyline points="610.77,345.84 612.31,347.15" style="fill:none;stroke:black;stroke-width:0.5"/>
<polyline points="612.55,358.69 612.23,359.02" style="fill:none;stroke:black;stroke-width:0.5"/>
<polyline points="610.76,351.35 610.94,350.61 611.44,350.05 612.15,349.78 612.9,349.87 613.52,350.3 613.87,350.97 613.87,351.72 613.52,352.39 612.9,352.82 612.15,352.91 611.44,352.64 610.94,352.08 610.76,351.35" style="fill:none;stroke:black;stroke-width:0.5"/>
<polyline points="614.89,359.22 614.65,358.56 614.14,358.08 613.48,357.89 612.79,358.01 612.23,358.43" style="fill:none;stroke:black;stroke-width:0.5"/>
<polyline points="609.95,351.35 610.13,350.43 610.65,349.65 611.43,349.13 612.34,348.95 613.26,349.13 614.03,349.65 614.55,350.43 614.73,351.35 614.55,352.26 614.03,353.04 613.26,353.56 612.34,353.74 611.43,353.56 610.65,353.04 610.13,352.26 609.95,351.35" style="fill:none;stroke:black;stroke-width:0.5"/>
<polyline points="612.98,363.14 612.84,363.21 612.75,363.34" style="fill:none;stroke:black;stroke-width:0.5"/>
<polyline points="611.71,363.34 611.63,363.21 611.49,363.14" style="fill:none;stroke:black;stroke-width:0.5"/>
<polyline points="612.98,363.14 613.13,363.09 613.21,362.94" style="fill:none;stroke:black;stroke-width:0.5"/>
<polyline points="611.26,362.94 611.34,363.09 611.49,363.14" style="fill:none;stroke:black;stroke-width:0.5"/>
<polyline points="641.89,350.75 641.54,349.73" style="fill:none;stroke:black;stroke-width:0.5"/>
<polyline points="643.33,357.72 642.89,354.59 642.14,351.53" style="fill:none;stroke:black;stroke-width:0.5"/>
<polyline points="641.25,348.97 639.96,346.12 638.39,343.43" style="fill:none;stroke:black;stroke-width:0.5"/>
<polyline points="612.8,329.21 611.59,329.21" style="fill:none;stroke:black;stroke-width:0.5"/>
<polyline points="610.77,329.23 607.6,329.54 604.47,330.16" style="fill:none;stroke:black;stroke-width:0.5"/>
<polyline points="619.53,330.08 616.6,329.52 613.62,329.24" style="fill:none;stroke:black;stroke-width:0.5"/>
<polyline points="546.98,361.55 547.26,386.38" style="fill:none;stroke:black;stroke-width:0.5"/>
<polyline points="536.37,386.51 536.46,369.76" style="fill:none;stroke:black;stroke-width:0.5"/>
<polyline points="539.48,363.21 539.56,369.71" style="fill:none;stroke:black;stroke-width:0.5"/>
<polyline points="546.26,266.35 544.99,266.43 543.77,266.78 542.66,267.38 541.7,268.22 540.95,269.24 540.44,270.41" style="fill:none;stroke:black;stroke-width:0.5"/>
<polyline points="542.55,271.54 542.75,272.91 543.27,274.19 544.09,275.31 545.15,276.21 546.39,276.82 547.74,277.11" style="fill:none;stroke:black;stroke-width:0.5"/>
<polyline points="545.63,268.19 544.69,268.46 543.85,268.98 543.19,269.7 542.74,270.58 542.55,271.54" style="fill:none;stroke:black;stroke-width:0.5"/>
<polyline points="540.11,274.65 541.01,275.96 542.16,277.06 543.5,277.92 544.98,278.49 546.54,278.76" style="fill:none;stroke:black;stroke-width:0.5"/>
<polyline points="542.55,271.54 549.39,272.01 556.25,272.17 563.1,272.03" style="fill:none;stroke:black;stroke-width:0.5"/>
<polyline points="540.44,270.41 539.96,271.78 539.85,273.22 540.11,274.65" style="fill:none;stroke:black;stroke-width:0.5"/>
<polyline points="558.94,277.22 560.21,277.06 561.37,276.52 562.31,275.66 562.95,274.55 563.22,273.3 563.1,272.03" style="fill:none;stroke:black;stroke-width:0.5"/>
<polyline points="563.1,272.03 562.96,270.92 562.51,269.9 561.8,269.04 560.88,268.41" style="fill:none;stroke:black;stroke-width:0.5"/>
<polyline points="570.58,269.14 570.25,268.18 569.68,267.33 568.9,266.67 567.98,266.24 566.97,266.06" style="fill:none;stroke:black;stroke-width:0.5"/>
<polyline points="564.67,278.79 566.13,278.63 567.5,278.14 568.72,277.32 569.72,276.24 570.42,274.96" style="fill:none;stroke:black;stroke-width:0.5"/>
<polyline points="570.58,269.14 570.42,274.96" style="fill:none;stroke:black;stroke-width:0.5"/>
<polyline points="547.74,277.11 551.47,277.38 555.21,277.42 558.94,277.22" style="fill:none;stroke:black;stroke-width:0.5"/>
<polyline points="560.88,268.41 557.89,267.62 554.82,267.21 551.73,267.16 548.65,267.49 545.63,268.19" style="fill:none;stroke:black;stroke-width:0.5"/>
<polyline points="566.97,266.06 546.26,266.35" style="fill:none;stroke:black;stroke-width:0.5"/>
<polyline points="546.54,278.76 552.6,279.07 558.66,279.08 564.71,278.79" style="fill:none;stroke:black;stroke-width:0.5"/>
<polyline points="442.61,207.03 425.35,206.76 408.1,206.82 390.84,207.21 373.6,207.92 356.38,208.95" style="fill:none;stroke:black;stroke-width:0.5"/>
<polyline points="432.5,208.15 413.38,208.08 394.26,208.41 375.15,209.14 356.06,210.26" style="fill:none;stroke:black;stroke-width:0.5"/>
<polyline points="356.38,208.95 352.83,209.35 349.33,210.03 345.9,211.01 342.56,212.26 339.34,213.78 336.25,215.56" style="fill:none;stroke:black;stroke-width:0.5"/>
<polyline points="356.06,210.26 352.51,210.66 349.01,211.35 345.58,212.32 342.25,213.58 339.02,215.1 335.93,216.88" style="fill:none;stroke:black;stroke-width:0.5"/>
<polyline points="336.25,215.56 329.76,219.37 323.42,223.42 317.24,227.71 311.23,232.24 305.4,237" style="fill:none;stroke:black;stroke-width:0.5"/>
<polyline points="335.93,216.88 328.34,221.37 320.96,226.19 313.8,231.34 306.88,236.81" style="fill:none;stroke:black;stroke-width:0.5"/>
<polyline points="432.43,190.53 433.51,190.26 434.47,189.68 435.2,188.83 435.64,187.8 435.75,186.69" style="fill:none;stroke:black;stroke-width:0.5"/>
<polyline points="433.95,190.5 435.01,190.25 435.96,189.69 436.69,188.88 437.15,187.88 437.3,186.79" style="fill:none;stroke:black;stroke-width:0.5"/>
<polyline points="433.95,190.5 403.33,190.97" style="fill:none;stroke:black;stroke-width:0.5"/>
<polyline points="403.33,190.97 391.08,191.22 378.85,191.86 366.65,192.89" style="fill:none;stroke:black;stroke-width:0.5"/>
<polyline points="547.27,194.52 531.64,192.43 515.98,190.65 500.28,189.17 484.56,188 468.82,187.14 453.06,186.59 437.3,186.34" style="fill:none;stroke:black;stroke-width:0.5"/>
<polyline points="437.3,186.79 437.3,186.34" style="fill:none;stroke:black;stroke-width:0.5"/>
<polyline points="435.75,186.69 435.75,186.33" style="fill:none;stroke:black;stroke-width:0.5"/>
<polyline points="437.3,186.34 436.8,186.11 436.25,186.11 435.75,186.33" style="fill:none;stroke:black;stroke-width:0.5"/>
<polyline points="435.75,186.33 421.29,186.41 406.84,186.75 392.39,187.34 377.95,188.2 363.53,189.31" style="fill:none;stroke:black;stroke-width:0.5"/>
<polyline points="363.24,190.23 366.26,192.77" style="fill:none;stroke:black;stroke-width:0.5"/>
<polyline points="364.39,190.13 367.39,192.66" style="fill:none;stroke:black;stroke-width:0.5"/>
<polyline points="366.26,192.77 366.44,192.87 366.65,192.89" style="fill:none;stroke:black;stroke-width:0.5"/>
<polyline points="367.39,192.66 367.57,192.76 367.78,192.78" style="fill:none;stroke:black;stroke-width:0.5"/>
<polyline points="366.65,192.89 366.65,192.89" style="fill:none;stroke:black;stroke-width:0.5"/>
<polyline points="364.68,189.21 364.33,189.39 364.21,189.77 364.39,190.13" style="fill:none;stroke:black;stroke-width:0.5"/>
<polyline points="363.53,189.31 363.18,189.49 363.06,189.87 363.24,190.23" style="fill:none;stroke:black;stroke-width:0.5"/>
<polyline points="521.16,213.51 510.04,211.61 498.87,210.03 487.66,208.78 476.42,207.85 465.16,207.25 453.89,206.98 442.61,207.03" style="fill:none;stroke:black;stroke-width:0.5"/>
<polyline points="567.84,230.07 561.56,226.73 555.12,223.71 548.55,221 541.85,218.62 535.04,216.58 528.14,214.87 521.16,213.51" style="fill:none;stroke:black;stroke-width:0.5"/>
<polyline points="571.53,233.02 570.42,231.89 569.18,230.9 567.84,230.07" style="fill:none;stroke:black;stroke-width:0.5"/>
<polyline points="571.19,235.2 571.65,234.77 571.88,234.19 571.83,233.56 571.53,233.02" style="fill:none;stroke:black;stroke-width:0.5"/>
<polyline points="521.16,215.15 509.81,213.22 498.41,211.62 486.97,210.36 475.5,209.44 464,208.86 452.5,208.61" style="fill:none;stroke:black;stroke-width:0.5"/>
<polyline points="553.76,225.12 547.48,222.4 541.07,220.04 534.52,218.04 527.88,216.41 521.16,215.15" style="fill:none;stroke:black;stroke-width:0.5"/>
<polyline points="556.64,224.77 554.78,243.61" style="fill:none;stroke:black;stroke-width:0.5"/>
<polyline points="554.06,225.64 552.56,240.85" style="fill:none;stroke:black;stroke-width:0.5"/>
<polyline points="554.06,225.64 553.99,225.33 553.76,225.12" style="fill:none;stroke:black;stroke-width:0.5"/>
<polyline points="552.24,241.28 523.54,253" style="fill:none;stroke:black;stroke-width:0.5"/>
<polyline points="553.57,244.4 558.16,242.49 562.64,240.31 566.99,237.88 571.19,235.2" style="fill:none;stroke:black;stroke-width:0.5"/>
<polyline points="554.46,244.04 524.76,256.17" style="fill:none;stroke:black;stroke-width:0.5"/>
<polyline points="433.05,256.6 509.35,255.21" style="fill:none;stroke:black;stroke-width:0.5"/>
<polyline points="430.95,260.31 510.58,258.38" style="fill:none;stroke:black;stroke-width:0.5"/>
<polyline points="509.35,255.21 512.96,255.12 516.54,254.72 520.08,254.01 523.54,253" style="fill:none;stroke:black;stroke-width:0.5"/>
<polyline points="510.58,258.38 514.18,258.29 517.77,257.89 521.3,257.18 524.76,256.17" style="fill:none;stroke:black;stroke-width:0.5"/>
<polyline points="428.25,265.12 524.14,263.87" style="fill:none;stroke:black;stroke-width:0.5"/>
<polyline points="517.35,271.59 524.51,264.77" style="fill:none;stroke:black;stroke-width:0.5"/>
<polyline points="524.51,264.77 524.66,264.5 524.63,264.2 524.43,263.96 524.14,263.87" style="fill:none;stroke:black;stroke-width:0.5"/>
<polyline points="587.67,254.04 586.41,253.96" style="fill:none;stroke:black;stroke-width:0.5"/>
<polyline points="517.35,271.59 517.08,271.98 517.17,272.45 517.57,272.72 518.04,272.63" style="fill:none;stroke:black;stroke-width:0.5"/>
<polyline points="556.68,256.71 551.5,257.67 546.38,258.94 541.35,260.51 536.41,262.37 531.6,264.52 526.92,266.95 522.4,269.66 518.04,272.63" style="fill:none;stroke:black;stroke-width:0.5"/>
<polyline points="552.24,241.28 552.46,241.11 552.56,240.85" style="fill:none;stroke:black;stroke-width:0.5"/>
<polyline points="554.46,244.04 554.68,243.87 554.78,243.61" style="fill:none;stroke:black;stroke-width:0.5"/>
<polyline points="556.64,224.77 556.57,224.46 556.33,224.25" style="fill:none;stroke:black;stroke-width:0.5"/>
<polyline points="552.56,240.85 555.06,240.85" style="fill:none;stroke:black;stroke-width:0.5"/>
<polyline points="547.27,194.52 544.3,196.46 541.51,198.64 538.91,201.04" style="fill:none;stroke:black;stroke-width:0.5"/>
<polyline points="676.57,240.13 664.26,234.01 651.78,228.22 639.15,222.77 626.38,217.67 613.47,212.92 600.44,208.52 587.3,204.48 574.05,200.8 560.7,197.48 547.27,194.52" style="fill:none;stroke:black;stroke-width:0.5"/>
<polyline points="665.33,245.17 653.27,239.27 641.05,233.68 628.7,228.43 616.2,223.5 603.59,218.9 590.85,214.65 578.01,210.73 565.06,207.15 552.03,203.92 538.91,201.04" style="fill:none;stroke:black;stroke-width:0.5"/>
<polyline points="678.04,239.47 665.33,245.17" style="fill:none;stroke:black;stroke-width:0.5"/>
<polyline points="550.06,195.1 546.78,197.03 543.7,199.26" style="fill:none;stroke:black;stroke-width:0.5"/>
<polyline points="665.15,242.99 653.56,237.34 641.84,231.98 629.98,226.93 617.99,222.17 605.89,217.73 593.68,213.59 581.37,209.76 568.97,206.25 556.48,203.06 543.91,200.18" style="fill:none;stroke:black;stroke-width:0.5"/>
<polyline points="543.7,199.26 543.51,199.59 543.59,199.97 543.91,200.18" style="fill:none;stroke:black;stroke-width:0.5"/>
<polyline points="674.43,239.04 665.6,243" style="fill:none;stroke:black;stroke-width:0.5"/>
<polyline points="665.15,242.99 665.37,243.04 665.6,243" style="fill:none;stroke:black;stroke-width:0.5"/>
<polyline points="692.89,239.82 687.95,239.4 682.99,239.29 678.04,239.47" style="fill:none;stroke:black;stroke-width:0.5"/>
<polyline points="692.89,239.82 708.11,241.54 723.37,242.99 738.65,244.15 753.95,245.04" style="fill:none;stroke:black;stroke-width:0.5"/>
<polyline points="755.97,248.51 755.94,247.43 755.56,246.43 754.87,245.6 753.95,245.04" style="fill:none;stroke:black;stroke-width:0.5"/>
<polyline points="755.97,248.51 755.36,252.23 755,255.99 754.9,259.75" style="fill:none;stroke:black;stroke-width:0.5"/>
<polyline points="755.97,248.51 752.83,249.56 749.79,250.87 746.87,252.43" style="fill:none;stroke:black;stroke-width:0.5"/>
<polyline points="746.87,252.43 743.91,254 741.07,255.78 738.37,257.75" style="fill:none;stroke:black;stroke-width:0.5"/>
<polyline points="738.37,257.75 737.88,258.31 737.67,259.01 737.77,259.74 738.17,260.36 738.79,260.76" style="fill:none;stroke:black;stroke-width:0.5"/>
<polyline points="738.79,260.76 739.94,261.33 741.2,261.53" style="fill:none;stroke:black;stroke-width:0.5"/>
<polyline points="741.2,261.53 744.48,261.64 747.75,261.39" style="fill:none;stroke:black;stroke-width:0.5"/>
<polyline points="754.9,259.75 751.29,260.42 747.75,261.39" style="fill:none;stroke:black;stroke-width:0.5"/>
<polyline points="747.22,253.65 747.22,261.46" style="fill:none;stroke:black;stroke-width:0.5"/>
<polyline points="747.22,253.65 747,252.51 746.48,251.47 745.72,250.59 744.76,249.94" style="fill:none;stroke:black;stroke-width:0.5"/>
<polyline points="683.7,246.57 698.93,247.97 714.19,249 729.47,249.65 744.76,249.94" style="fill:none;stroke:black;stroke-width:0.5"/>
<polyline points="665.33,245.17 674.5,245.99 683.7,246.57" style="fill:none;stroke:black;stroke-width:0.5"/>
<polyline points="730.68,249.69 728.03,250.82 725.5,252.19 723.11,253.78 720.87,255.59" style="fill:none;stroke:black;stroke-width:0.5"/>
<polyline points="720.87,255.59 725.78,255.11 730.64,254.31 735.44,253.17 740.16,251.71 744.76,249.94" style="fill:none;stroke:black;stroke-width:0.5"/>
<polyline points="753.95,245.04 750.77,246.44 747.7,248.08 744.76,249.94" style="fill:none;stroke:black;stroke-width:0.5"/>
<polyline points="586.41,254.04 578.94,254.24 571.49,254.76 564.07,255.58 556.68,256.71" style="fill:none;stroke:black;stroke-width:0.5"/>
<polyline points="720.87,255.59 698.68,254.53 676.49,253.79 654.29,253.37 632.08,253.27 609.87,253.49 587.67,254.04" style="fill:none;stroke:black;stroke-width:0.5"/>
<polyline points="615.1,250.03 636.23,250.03" style="fill:none;stroke:black;stroke-width:0.5"/>
<polyline points="615.1,274.04 636.23,274.04" style="fill:none;stroke:black;stroke-width:0.5"/>
<polyline points="610.47,254.55 610.47,269.52" style="fill:none;stroke:black;stroke-width:0.5"/>
<polyline points="615.1,250.03 613.93,250.21 612.84,250.66 611.89,251.38 611.15,252.3 610.67,253.38 610.47,254.55" style="fill:none;stroke:black;stroke-width:0.5"/>
<polyline points="610.47,269.52 610.67,270.69 611.15,271.77 611.89,272.69 612.84,273.41 613.93,273.87 615.1,274.04" style="fill:none;stroke:black;stroke-width:0.5"/>
<polyline points="640.86,254.55 640.86,269.52" style="fill:none;stroke:black;stroke-width:0.5"/>
<polyline points="636.23,274.04 637.4,273.87 638.5,273.41 639.44,272.69 640.18,271.77 640.66,270.69 640.86,269.52" style="fill:none;stroke:black;stroke-width:0.5"/>
<polyline points="640.86,254.55 640.66,253.38 640.18,252.3 639.44,251.38 638.5,250.66 637.4,250.21 636.23,250.03" style="fill:none;stroke:black;stroke-width:0.5"/>
<polyline points="677.34,361.93 677.74,374.68" style="fill:none;stroke:black;stroke-width:0.5"/>
<polyline points="684.87,362.61 685.16,373.09" style="fill:none;stroke:black;stroke-width:0.5"/>
<polyline points="665.86,373.47 667.04,374.28 668.39,374.77 669.81,374.93" style="fill:none;stroke:black;stroke-width:0.5"/>
<polyline points="669.81,374.93 677.74,374.68" style="fill:none;stroke:black;stroke-width:0.5"/>
<polyline points="758.44,365.13 751.55,365.04 744.66,365.24 737.78,365.71 730.93,366.46" style="fill:none;stroke:black;stroke-width:0.5"/>
<polyline points="758.44,365.13 763.23,359.32" style="fill:none;stroke:black;stroke-width:0.5"/>
<polyline points="771.35,355.84 769.53,355.93 767.75,356.35 766.08,357.07 764.55,358.07 763.23,359.32" style="fill:none;stroke:black;stroke-width:0.5"/>
<polyline points="771.35,355.84 772.88,355.74 774.33,355.26 775.6,354.42 776.62,353.27 777.3,351.91" style="fill:none;stroke:black;stroke-width:0.5"/>
<polyline points="777.3,351.91 778.5,348.6 779.34,345.18 779.83,341.69 779.95,338.18" style="fill:none;stroke:black;stroke-width:0.5"/>
<polyline points="776.11,334.98 776.45,336 777.07,336.89 777.9,337.58 778.88,338.02 779.95,338.18" style="fill:none;stroke:black;stroke-width:0.5"/>
<polyline points="779.95,338.18 683.91,348.54" style="fill:none;stroke:black;stroke-width:0.5"/>
<polyline points="776.11,334.98 776.17,328.74 775.95,322.5 775.44,316.28 774.65,310.08" style="fill:none;stroke:black;stroke-width:0.5"/>
<polyline points="776.05,307.77 775.55,305.69 774.74,303.72 773.65,301.89 772.28,300.24" style="fill:none;stroke:black;stroke-width:0.5"/>
<polyline points="774.65,310.08 775.33,309.77 775.83,309.22 776.08,308.51 776.05,307.77" style="fill:none;stroke:black;stroke-width:0.5"/>
<polyline points="728.26,290.37 763.27,290.05" style="fill:none;stroke:black;stroke-width:0.5"/>
<polyline points="720.87,255.59 728.26,290.37" style="fill:none;stroke:black;stroke-width:0.5"/>
<polyline points="728.26,290.37 722.61,298.58" style="fill:none;stroke:black;stroke-width:0.5"/>
<polyline points="739.09,291.05 734.32,267.98" style="fill:none;stroke:black;stroke-width:0.5"/>
<polyline points="738.37,257.75 736.99,258.74 735.82,259.96 734.91,261.39 734.29,262.96 733.98,264.63 733.98,266.32 734.32,267.98" style="fill:none;stroke:black;stroke-width:0.5"/>
<polyline points="756.3,290.12 754.47,282.82 752.34,275.6 749.93,268.48 747.22,261.46" style="fill:none;stroke:black;stroke-width:0.5"/>
<polyline points="763.27,290.05 762.32,283.82 761,277.65 759.32,271.57 757.28,265.59 754.9,259.75" style="fill:none;stroke:black;stroke-width:0.5"/>
<polyline points="759.03,270.64 759.37,269.16 759.42,267.63 759.17,266.13 758.64,264.7 757.85,263.39 756.82,262.27 755.59,261.36" style="fill:none;stroke:black;stroke-width:0.5"/>
<polyline points="761.05,283.61 760.87,283.2 760.35,282.86 759.59,282.63 758.68,282.54 757.78,282.63 757.01,282.86 756.5,283.2 756.32,283.61 756.5,284.01 757.01,284.36 757.78,284.59 758.68,284.67 759.59,284.59 760.35,284.36 760.87,284.01 761.05,283.61" style="fill:none;stroke:black;stroke-width:0.5"/>
<polyline points="756.3,290.12 757.7,292.55 759.36,294.81 761.27,296.86 763.41,298.68 765.74,300.24" style="fill:none;stroke:black;stroke-width:0.5"/>
<polyline points="738.93,290.28 741.03,292.96 743.38,295.43 745.96,297.66 748.74,299.63 751.7,301.32 754.81,302.72 758.05,303.81" style="fill:none;stroke:black;stroke-width:0.5"/>
<polyline points="758.05,303.81 763.61,303.97 769.18,303.94 774.74,303.72" style="fill:none;stroke:black;stroke-width:0.5"/>
<polyline points="772.28,300.24 769.01,300.19 765.74,300.24" style="fill:none;stroke:black;stroke-width:0.5"/>
<polyline points="764.35,299.36 764.21,296.23 763.86,293.13 763.27,290.05" style="fill:none;stroke:black;stroke-width:0.5"/>
<polyline points="722.61,298.58 702.87,299.2 683.14,300.23 663.44,301.65 643.77,303.47" style="fill:none;stroke:black;stroke-width:0.5"/>
<polyline points="730.93,366.46 720.21,367.52 709.52,368.88 698.88,370.52 688.28,372.46 677.74,374.68" style="fill:none;stroke:black;stroke-width:0.5"/>
<polyline points="553.99,379.52 552.46,379.65 550.99,380.13 549.68,380.95 548.6,382.05 547.81,383.37 547.36,384.84 547.26,386.38" style="fill:none;stroke:black;stroke-width:0.5"/>
<polyline points="553.99,379.52 560.3,379.52" style="fill:none;stroke:black;stroke-width:0.5"/>
<polyline points="21.28,377.15 27.91,383.71" style="fill:none;stroke:black;stroke-width:0.5"/>
<polyline points="27.91,383.71 28.62,384.33 29.45,384.77 30.36,385.01" style="fill:none;stroke:black;stroke-width:0.5"/>
<polyline points="214.46,386.54 214.6,387.85 215.03,389.09 215.73,390.2" style="fill:none;stroke:black;stroke-width:0.5"/>
<polyline points="214.46,386.54 214.14,383.86 213.44,381.24 212.4,378.75 211.01,376.42 209.32,374.31 207.36,372.46 205.15,370.89" style="fill:none;stroke:black;stroke-width:0.5"/>
<polyline points="759.22,364.18 783.49,364.18" style="fill:none;stroke:black;stroke-width:0.5"/>
<polyline points="783.49,364.18 783.49,350.93" style="fill:none;stroke:black;stroke-width:0.5"/>
<polyline points="783.49,350.93 777.7,350.93" style="fill:none;stroke:black;stroke-width:0.5"/>
<polyline points="29.51,331.3 27.91,316.43" style="fill:none;stroke:black;stroke-width:0.5"/>
<polyline points="27.7,314.49 26.06,299.25" style="fill:none;stroke:black;stroke-width:0.5"/>
<polyline points="37.28,284.09 35.43,283.7 33.54,283.69 31.69,284.04 29.94,284.75 28.36,285.79 27.02,287.11 25.96,288.68 25.23,290.42" style="fill:none;stroke:black;stroke-width:0.5"/>
</svg>
