<?xml version='1.0' encoding='UTF-8' standalone='no'?>
<!-- Created with Fritzing (http://www.fritzing.org/) -->
<svg xmlns:svg='http://www.w3.org/2000/svg' xmlns='http://www.w3.org/2000/svg' version='1.2' baseProfile='tiny' x='0in' y='0in' width='6.64444in' height='8.39286in' viewBox='0 0 478.4 604.286' >
<g partID='855120710'><g transform='translate(401.994,604.286)' ><g transform='matrix(-1,0,0,-1,0,0)'  ><g xmlns="http://www.w3.org/2000/svg" id="breadboard">
 <g xmlns="http://www.w3.org/2000/svg" id="icon">
  <path xmlns="http://www.w3.org/2000/svg" id="path16" d="M6.963,18.013c0,0,0,3.993,0,5.186c0,1.193,-1.271,2.303,-2.39,3.429c-1.462,1.472,-1.061,2.992,-1.061,4.732l0,1.188l0,0l2.16,0l0,0l0,-1.022c0,-1.096,-0.666,-2.271,0.433,-3.373c1.483,-1.492,3.019,-3.038,3.019,-4.82l0,-5.313L6.963,18.013L6.963,18.013z" fill="#8C8C8C"/>
  <line xmlns="http://www.w3.org/2000/svg" y2="53.508" x2="11.81" stroke-width="2.16" y1="18.357" stroke-linecap="round" stroke="#8C8C8C" fill="none" x1="11.81"/>
  <path xmlns="http://www.w3.org/2000/svg" id="path20" d="M19.187,26.625c-1.121,-1.127,-2.392,-2.235,-2.392,-3.429c0,-1.192,0,-5.186,0,-5.186l-2.16,0l0,5.313c0,1.784,1.535,3.329,3.019,4.822c1.103,1.104,0.238,2.273,0.238,3.373l0,1.021l0,0l2.16,0l0,0l0,-1.186C20.052,29.618,20.647,28.098,19.187,26.625z" fill="#8C8C8C"/>
  <polygon xmlns="http://www.w3.org/2000/svg" id="polygon30" points="15.692,8.638,16.133,9.154,12.981,12.519,15.978,12.519,15.978,13.269,15.978,16.325,16.903,16.325,16.903,8.638" fill="#999999"/>
  <polygon xmlns="http://www.w3.org/2000/svg" id="polygon32" points="12.729,8.921,12.223,9.796,10.278,9.796,9.772,8.921,8.22,8.921,6.999,9.777,6.999,16.325,8.865,16.323,8.865,12.519,11.563,12.519,14.916,8.921" fill="#999999"/>
  <line xmlns="http://www.w3.org/2000/svg" y2="53.551" x2="4.592" stroke-width="2.16" y1="32.551" stroke-linecap="round" stroke="#8C8C8C" fill="none" x1="4.592"/>
  <line xmlns="http://www.w3.org/2000/svg" y2="53.551" x2="18.972" stroke-width="2.16" y1="32.551" stroke-linecap="round" stroke="#8C8C8C" fill="none" x1="18.972"/>
 </g>
 <g xmlns="http://www.w3.org/2000/svg">
  <rect xmlns="http://www.w3.org/2000/svg" width="2.296" id="connector1pin" y="31.353" height="2.08" x="10.646" fill="none"/>
  <rect xmlns="http://www.w3.org/2000/svg" width="2.16" id="connector4pin" y="31.572" height="1.813" x="17.892" fill="none"/>
  <rect xmlns="http://www.w3.org/2000/svg" width="2.16" id="connector0pin" y="31.471" height="2.07" x="3.512" fill="none"/>
 </g>
 <g xmlns="http://www.w3.org/2000/svg">
  <path xmlns="http://www.w3.org/2000/svg" enable-background="new    " opacity="0.5" d="M19.133,13.177L19.133,7.185C19.133,3.217,15.916,0,11.948,0C7.982,0,4.765,3.217,4.765,7.185l0,13.834c1.5,1.674,4.153,2.789,7.184,2.789c4.687,0,8.479,-2.658,8.479,-5.938l0,-1.547C20.433,15.167,19.95,14.089,19.133,13.177z" fill="#E6E6E6"/>
  <path xmlns="http://www.w3.org/2000/svg" enable-background="new    " opacity="0.9" d="M19.133,13.177l0,3.146c0,2.777,-3.217,5.029,-7.185,5.029c-3.966,0,-7.184,-2.252,-7.184,-5.029l0,3.148l0,1.547c1.5,1.672,4.153,2.789,7.184,2.789c4.687,0,8.481,-2.658,8.481,-5.938l0,-1.546C20.433,15.167,19.95,14.089,19.133,13.177z" fill="#D1D1D1"/>
  <path xmlns="http://www.w3.org/2000/svg" enable-background="new    " opacity="0.24" d="M19.133,13.177l0,3.146c0,2.777,-3.217,5.029,-7.185,5.029c-3.966,0,-7.184,-2.252,-7.184,-5.029l0,3.148c1.5,1.674,4.153,2.789,7.184,2.789c4.687,0,8.481,-2.658,8.481,-5.938C20.433,15.167,19.95,14.089,19.133,13.177z"/>
  <ellipse xmlns="http://www.w3.org/2000/svg" cx="11.95" enable-background="new    " opacity="0.5" rx="7.183" fill="#CCCCCC" ry="5.029" cy="16.323"/>
  <polygon xmlns="http://www.w3.org/2000/svg" points="15.692,8.638,16.133,9.154,12.981,12.519,15.978,12.519,15.978,13.269,15.978,16.325,16.903,16.325,16.903,8.638" fill="#999999"/>
  <polygon xmlns="http://www.w3.org/2000/svg" points="12.729,8.921,12.223,9.796,10.278,9.796,9.772,8.921,8.22,8.921,6.999,9.777,6.999,16.325,8.865,16.323,8.865,12.519,11.563,12.519,14.916,8.921" fill="#999999"/>
  <path xmlns="http://www.w3.org/2000/svg" enable-background="new    " opacity="0.6" d="M15.295,3.802l1.459,-0.277c-0.849,-1.149,-2.108,-1.986,-3.588,-2.271l0.252,1.098C14.194,2.625,14.847,3.142,15.295,3.802z" fill="#FFFFFF"/>
  <path xmlns="http://www.w3.org/2000/svg" enable-background="new    " opacity="0.6" d="M15.987,20.482c-0.264,0.125,-0.537,0.232,-0.821,0.334c-0.06,0.021,-0.119,0.041,-0.181,0.062c-0.569,0.188,-1.185,0.321,-1.821,0.397c-0.076,0.011,-0.154,0.019,-0.229,0.025c-0.322,0.029,-0.647,0.053,-0.983,0.053c-0.148,0,-0.312,-0.01,-0.478,-0.024c-1.223,-0.058,-2.362,-0.316,-3.344,-0.75l0,-8.507L8.13,7.185c0,-1.49,0.86,-2.767,2.104,-3.396l-0.021,-0.051L8.946,2.203C7.257,3.224,6.115,5.066,6.115,7.183L6.115,19.25c-0.049,-0.049,-0.313,-0.312,-0.485,-0.533l-0.312,0.698c1.426,1.503,3.861,2.497,6.632,2.497c1.703,0,3.277,-0.379,4.572,-1.019l-0.531,-0.412C15.987,20.482,15.987,20.482,15.987,20.482z" fill="#FFFFFF"/>
 </g>
</g>
</g></g></g><g partID='855120740'><g transform='translate(99.5937,604.286)' ><g transform='matrix(-1,0,0,-1,0,0)'  ><g xmlns="http://www.w3.org/2000/svg" id="breadboard">
 <g xmlns="http://www.w3.org/2000/svg" id="icon">
  <path xmlns="http://www.w3.org/2000/svg" id="path16" d="M6.963,18.013c0,0,0,3.993,0,5.186c0,1.193,-1.271,2.303,-2.39,3.429c-1.462,1.472,-1.061,2.992,-1.061,4.732l0,1.188l0,0l2.16,0l0,0l0,-1.022c0,-1.096,-0.666,-2.271,0.433,-3.373c1.483,-1.492,3.019,-3.038,3.019,-4.82l0,-5.313L6.963,18.013L6.963,18.013z" fill="#8C8C8C"/>
  <line xmlns="http://www.w3.org/2000/svg" y2="53.508" x2="11.81" stroke-width="2.16" y1="18.357" stroke-linecap="round" stroke="#8C8C8C" fill="none" x1="11.81"/>
  <path xmlns="http://www.w3.org/2000/svg" id="path20" d="M19.187,26.625c-1.121,-1.127,-2.392,-2.235,-2.392,-3.429c0,-1.192,0,-5.186,0,-5.186l-2.16,0l0,5.313c0,1.784,1.535,3.329,3.019,4.822c1.103,1.104,0.238,2.273,0.238,3.373l0,1.021l0,0l2.16,0l0,0l0,-1.186C20.052,29.618,20.647,28.098,19.187,26.625z" fill="#8C8C8C"/>
  <polygon xmlns="http://www.w3.org/2000/svg" id="polygon30" points="15.692,8.638,16.133,9.154,12.981,12.519,15.978,12.519,15.978,13.269,15.978,16.325,16.903,16.325,16.903,8.638" fill="#999999"/>
  <polygon xmlns="http://www.w3.org/2000/svg" id="polygon32" points="12.729,8.921,12.223,9.796,10.278,9.796,9.772,8.921,8.22,8.921,6.999,9.777,6.999,16.325,8.865,16.323,8.865,12.519,11.563,12.519,14.916,8.921" fill="#999999"/>
  <line xmlns="http://www.w3.org/2000/svg" y2="53.551" x2="4.592" stroke-width="2.16" y1="32.551" stroke-linecap="round" stroke="#8C8C8C" fill="none" x1="4.592"/>
  <line xmlns="http://www.w3.org/2000/svg" y2="53.551" x2="18.972" stroke-width="2.16" y1="32.551" stroke-linecap="round" stroke="#8C8C8C" fill="none" x1="18.972"/>
 </g>
 <g xmlns="http://www.w3.org/2000/svg">
  <rect xmlns="http://www.w3.org/2000/svg" width="2.296" id="connector1pin" y="31.353" height="2.08" x="10.646" fill="none"/>
  <rect xmlns="http://www.w3.org/2000/svg" width="2.16" id="connector4pin" y="31.572" height="1.813" x="17.892" fill="none"/>
  <rect xmlns="http://www.w3.org/2000/svg" width="2.16" id="connector0pin" y="31.471" height="2.07" x="3.512" fill="none"/>
 </g>
 <g xmlns="http://www.w3.org/2000/svg">
  <path xmlns="http://www.w3.org/2000/svg" enable-background="new    " opacity="0.5" d="M19.133,13.177L19.133,7.185C19.133,3.217,15.916,0,11.948,0C7.982,0,4.765,3.217,4.765,7.185l0,13.834c1.5,1.674,4.153,2.789,7.184,2.789c4.687,0,8.479,-2.658,8.479,-5.938l0,-1.547C20.433,15.167,19.95,14.089,19.133,13.177z" fill="#E6E6E6"/>
  <path xmlns="http://www.w3.org/2000/svg" enable-background="new    " opacity="0.9" d="M19.133,13.177l0,3.146c0,2.777,-3.217,5.029,-7.185,5.029c-3.966,0,-7.184,-2.252,-7.184,-5.029l0,3.148l0,1.547c1.5,1.672,4.153,2.789,7.184,2.789c4.687,0,8.481,-2.658,8.481,-5.938l0,-1.546C20.433,15.167,19.95,14.089,19.133,13.177z" fill="#D1D1D1"/>
  <path xmlns="http://www.w3.org/2000/svg" enable-background="new    " opacity="0.24" d="M19.133,13.177l0,3.146c0,2.777,-3.217,5.029,-7.185,5.029c-3.966,0,-7.184,-2.252,-7.184,-5.029l0,3.148c1.5,1.674,4.153,2.789,7.184,2.789c4.687,0,8.481,-2.658,8.481,-5.938C20.433,15.167,19.95,14.089,19.133,13.177z"/>
  <ellipse xmlns="http://www.w3.org/2000/svg" cx="11.95" enable-background="new    " opacity="0.5" rx="7.183" fill="#CCCCCC" ry="5.029" cy="16.323"/>
  <polygon xmlns="http://www.w3.org/2000/svg" points="15.692,8.638,16.133,9.154,12.981,12.519,15.978,12.519,15.978,13.269,15.978,16.325,16.903,16.325,16.903,8.638" fill="#999999"/>
  <polygon xmlns="http://www.w3.org/2000/svg" points="12.729,8.921,12.223,9.796,10.278,9.796,9.772,8.921,8.22,8.921,6.999,9.777,6.999,16.325,8.865,16.323,8.865,12.519,11.563,12.519,14.916,8.921" fill="#999999"/>
  <path xmlns="http://www.w3.org/2000/svg" enable-background="new    " opacity="0.6" d="M15.295,3.802l1.459,-0.277c-0.849,-1.149,-2.108,-1.986,-3.588,-2.271l0.252,1.098C14.194,2.625,14.847,3.142,15.295,3.802z" fill="#FFFFFF"/>
  <path xmlns="http://www.w3.org/2000/svg" enable-background="new    " opacity="0.6" d="M15.987,20.482c-0.264,0.125,-0.537,0.232,-0.821,0.334c-0.06,0.021,-0.119,0.041,-0.181,0.062c-0.569,0.188,-1.185,0.321,-1.821,0.397c-0.076,0.011,-0.154,0.019,-0.229,0.025c-0.322,0.029,-0.647,0.053,-0.983,0.053c-0.148,0,-0.312,-0.01,-0.478,-0.024c-1.223,-0.058,-2.362,-0.316,-3.344,-0.75l0,-8.507L8.13,7.185c0,-1.49,0.86,-2.767,2.104,-3.396l-0.021,-0.051L8.946,2.203C7.257,3.224,6.115,5.066,6.115,7.183L6.115,19.25c-0.049,-0.049,-0.313,-0.312,-0.485,-0.533l-0.312,0.698c1.426,1.503,3.861,2.497,6.632,2.497c1.703,0,3.277,-0.379,4.572,-1.019l-0.531,-0.412C15.987,20.482,15.987,20.482,15.987,20.482z" fill="#FFFFFF"/>
 </g>
</g>
</g></g></g><path stroke='#8c8c8c' stroke-width='2.90997' stroke-linecap='round' stroke-linejoin='round' fill='none' d='M29.7997,507.093L30.1997,507.093' />
<path stroke='#8c8c8c' stroke-width='2.90997' stroke-linecap='round' stroke-linejoin='round' fill='none' d='M1.85498,507.093L1.45499,507.093' />
<g partID='855125960'><g transform='translate(0,503.654)' ><g xmlns="http://www.w3.org/2000/svg" id="breadboard">
 <rect xmlns="http://www.w3.org/2000/svg" width="0.719993" id="connector0pin" y="2.39198" height="0.719993" x="1.45499" fill="none"/>
 <rect xmlns="http://www.w3.org/2000/svg" width="0.720993" id="connector1pin" y="2.39198" height="0.719993" x="28.1647" fill="none"/>
 <line xmlns="http://www.w3.org/2000/svg" y2="3.43897" id="connector0leg" x2="1.85498" stroke-width="2.90997" y1="3.43897" stroke-linecap="round" stroke="#8C8C8C" fill="none" x1="1.45499"/>
 <line xmlns="http://www.w3.org/2000/svg" y2="3.43897" id="connector1leg" x2="29.7997" stroke-width="2.90997" y1="3.43897" stroke-linecap="round" stroke="#8C8C8C" fill="none" x1="30.1997"/>
 <path xmlns="http://www.w3.org/2000/svg" stroke-width="2.90997" d="M1.45499,3.43897l28.3157,0" stroke="#8C8C8C" fill="none"/>
 <path xmlns="http://www.w3.org/2000/svg" id="body" d="M10.6549,0.301997c-0.359996,-0.165998,-0.97899,-0.294997,-1.37499,-0.294997L7.29293,0.00699993c-0.395996,0,-0.719993,0.323997,-0.719993,0.719993l0,5.35595c0,0.395996,0.323997,0.719993,0.719993,0.719993L9.27991,6.80293c0.395996,0,1.01499,-0.135999,1.37499,-0.295997l0.0719993,-0.0349997c0.359996,-0.164998,0.97899,-0.294997,1.37499,-0.294997l7.18493,0c0.396996,0,1.01599,0.136999,1.37499,0.294997l0.0719993,0.0349997c0.360996,0.165998,0.97899,0.295997,1.37599,0.295997l1.98698,0c0.395996,0,0.719993,-0.322997,0.719993,-0.719993L24.8168,0.726993c0,-0.395996,-0.322997,-0.719993,-0.719993,-0.719993l-1.98698,0c-0.396996,0,-1.01499,0.136999,-1.37599,0.294997l-0.0719993,0.0359996c-0.358996,0.165998,-0.97799,0.294997,-1.37499,0.294997l-7.18493,0c-0.395996,0,-1.01499,-0.136999,-1.37499,-0.294997L10.6549,0.301997z" fill="#7BC6B8"/>
 <rect xmlns="http://www.w3.org/2000/svg" width="0.702993" id="gold_band" y="0" height="6.79593" x="22.4258" fill="#ad9f4e"/>
 <rect xmlns="http://www.w3.org/2000/svg" width="1.85098" id="band_3" y="0.632994" height="5.53694" x="15.1398" fill="#000000"/>
 <rect xmlns="http://www.w3.org/2000/svg" width="1.84998" id="band_2_nd" y="0.632994" height="5.53694" x="12.1599" fill="#c40808"/>
 <path xmlns="http://www.w3.org/2000/svg" id="band_rd_multiplier" d="M18.0038,0.635994c0,0,1.19699,0,1.39999,0s0.437996,-0.0629994,0.437996,-0.0629994l0,5.67194c0,0,-0.202998,-0.0649994,-0.437996,-0.0649994s-1.39999,-0.00699993,-1.39999,-0.00699993L18.0038,0.635994z" fill="#000000"/>
 <path xmlns="http://www.w3.org/2000/svg" id="band_1_st" d="M11.0359,0.445996c-0.114999,-0.0359996,-0.222998,-0.0719993,-0.309997,-0.114999l-0.0719993,-0.0359996C10.2949,0.129999,9.6759,0,9.27991,0L9.19291,0l0,6.79593L9.27991,6.79593c0.395996,0,1.01499,-0.136999,1.37499,-0.294997l0.0719993,-0.0359996c0.0859991,-0.0439996,0.194998,-0.0789992,0.309997,-0.114999L11.0369,0.445996z" fill="#c40808"/>
 <path xmlns="http://www.w3.org/2000/svg" fill-opacity="0.4" id="Shadow" d="M24.1188,3.89596L24.1188,3.89596c0,0.379996,-0.129999,0.698993,-0.294997,0.698993l-1.92298,0c-0.379996,0,-0.97799,-0.0559994,-1.33199,-0.121999l-0.0729993,-0.0159998c-0.344997,-0.0649994,-0.947991,-0.121999,-1.33299,-0.121999l-6.94693,0c-0.381996,0,-0.97899,0.0569994,-1.33199,0.121999l-0.0719993,0.0149999c-0.344997,0.0659993,-0.942991,0.122999,-1.33199,0.122999L9.16291,4.59495L8.16192,4.59495l-0.309997,0c-0.381996,0,-0.697993,0.292997,-0.697993,0.644994l0,0.246998l0,0.158998l0,0.172998c0,0.359996,0.315997,0.645994,0.697993,0.645994l1.61998,0c0.380996,0,0.97899,-0.122999,1.33199,-0.267997l0.0719993,-0.0269997c0.345997,-0.141999,0.95099,-0.265997,1.33199,-0.265997l6.94593,0c0.379996,0,0.97799,0.123999,1.33399,0.265997l0.0739993,0.0279997c0.345997,0.144999,0.944991,0.266997,1.33399,0.266997l2.22498,0c0.380996,0,0.698993,-0.294997,0.698993,-0.644994L24.8198,5.27895L24.8198,4.30596L24.8198,2.46198C24.5428,2.56997,24.1188,2.87297,24.1188,3.89596z" fill="#000000"/>
 <rect xmlns="http://www.w3.org/2000/svg" width="0.702993" id="ShadowExtra" y="3.28997" height="3.15297" x="22.4258"/>
 <path xmlns="http://www.w3.org/2000/svg" id="ReflexRight" d="M20.1588,0.892991c0.229998,0,0.490995,-0.100999,0.661993,-0.172998c0.201998,-0.0789992,0.576994,-0.143999,0.96699,-0.143999l1.46099,0c0.224998,0,0.224998,0.244998,0.224998,0.374996c0,0.129999,-0.0159998,0.381996,-0.224998,0.381996l-3.06097,0c-0.106999,0,-0.229998,-0.114999,-0.229998,-0.223998C19.9638,1.02199,20.0358,0.892991,20.1588,0.892991z" fill="#FFFFFF"/>
 <circle xmlns="http://www.w3.org/2000/svg" cx="7.40793" r="0.431996" id="ReflexLeft" fill="#FFFFFF" cy="0.942991"/>
 <rect xmlns="http://www.w3.org/2000/svg" width="0.702993" id="Reflex_gold" y="0.229998" height="1.61998" x="22.4258" fill="#FFFF33"/>
 <rect xmlns="http://www.w3.org/2000/svg" width="0.702993" id="Reflex_extra" y="0.589994" height="0.748993" x="22.4258" fill="#FFFFFF"/>
</g>
</g></g><path stroke='#8c8c8c' stroke-width='2.90997' stroke-linecap='round' stroke-linejoin='round' fill='none' d='M476.2,507.093L476.6,507.093' />
<path stroke='#8c8c8c' stroke-width='2.90997' stroke-linecap='round' stroke-linejoin='round' fill='none' d='M448.255,507.093L447.855,507.093' />
<g partID='855126120'><g transform='translate(446.4,503.654)' ><g xmlns="http://www.w3.org/2000/svg" id="breadboard">
 <rect xmlns="http://www.w3.org/2000/svg" width="0.719993" id="connector0pin" y="2.39198" height="0.719993" x="1.45499" fill="none"/>
 <rect xmlns="http://www.w3.org/2000/svg" width="0.720993" id="connector1pin" y="2.39198" height="0.719993" x="28.1647" fill="none"/>
 <line xmlns="http://www.w3.org/2000/svg" y2="3.43897" id="connector0leg" x2="1.85498" stroke-width="2.90997" y1="3.43897" stroke-linecap="round" stroke="#8C8C8C" fill="none" x1="1.45499"/>
 <line xmlns="http://www.w3.org/2000/svg" y2="3.43897" id="connector1leg" x2="29.7997" stroke-width="2.90997" y1="3.43897" stroke-linecap="round" stroke="#8C8C8C" fill="none" x1="30.1997"/>
 <path xmlns="http://www.w3.org/2000/svg" stroke-width="2.90997" d="M1.45499,3.43897l28.3157,0" stroke="#8C8C8C" fill="none"/>
 <path xmlns="http://www.w3.org/2000/svg" id="body" d="M10.6549,0.301997c-0.359996,-0.165998,-0.97899,-0.294997,-1.37499,-0.294997L7.29293,0.00699993c-0.395996,0,-0.719993,0.323997,-0.719993,0.719993l0,5.35595c0,0.395996,0.323997,0.719993,0.719993,0.719993L9.27991,6.80293c0.395996,0,1.01499,-0.135999,1.37499,-0.295997l0.0719993,-0.0349997c0.359996,-0.164998,0.97899,-0.294997,1.37499,-0.294997l7.18493,0c0.396996,0,1.01599,0.136999,1.37499,0.294997l0.0719993,0.0349997c0.360996,0.165998,0.97899,0.295997,1.37599,0.295997l1.98698,0c0.395996,0,0.719993,-0.322997,0.719993,-0.719993L24.8168,0.726993c0,-0.395996,-0.322997,-0.719993,-0.719993,-0.719993l-1.98698,0c-0.396996,0,-1.01499,0.136999,-1.37599,0.294997l-0.0719993,0.0359996c-0.358996,0.165998,-0.97799,0.294997,-1.37499,0.294997l-7.18493,0c-0.395996,0,-1.01499,-0.136999,-1.37499,-0.294997L10.6549,0.301997z" fill="#7BC6B8"/>
 <rect xmlns="http://www.w3.org/2000/svg" width="0.702993" id="gold_band" y="0" height="6.79593" x="22.4258" fill="#ad9f4e"/>
 <rect xmlns="http://www.w3.org/2000/svg" width="1.85098" id="band_3" y="0.632994" height="5.53694" x="15.1398" fill="#000000"/>
 <rect xmlns="http://www.w3.org/2000/svg" width="1.84998" id="band_2_nd" y="0.632994" height="5.53694" x="12.1599" fill="#c40808"/>
 <path xmlns="http://www.w3.org/2000/svg" id="band_rd_multiplier" d="M18.0038,0.635994c0,0,1.19699,0,1.39999,0s0.437996,-0.0629994,0.437996,-0.0629994l0,5.67194c0,0,-0.202998,-0.0649994,-0.437996,-0.0649994s-1.39999,-0.00699993,-1.39999,-0.00699993L18.0038,0.635994z" fill="#000000"/>
 <path xmlns="http://www.w3.org/2000/svg" id="band_1_st" d="M11.0359,0.445996c-0.114999,-0.0359996,-0.222998,-0.0719993,-0.309997,-0.114999l-0.0719993,-0.0359996C10.2949,0.129999,9.6759,0,9.27991,0L9.19291,0l0,6.79593L9.27991,6.79593c0.395996,0,1.01499,-0.136999,1.37499,-0.294997l0.0719993,-0.0359996c0.0859991,-0.0439996,0.194998,-0.0789992,0.309997,-0.114999L11.0369,0.445996z" fill="#c40808"/>
 <path xmlns="http://www.w3.org/2000/svg" fill-opacity="0.4" id="Shadow" d="M24.1188,3.89596L24.1188,3.89596c0,0.379996,-0.129999,0.698993,-0.294997,0.698993l-1.92298,0c-0.379996,0,-0.97799,-0.0559994,-1.33199,-0.121999l-0.0729993,-0.0159998c-0.344997,-0.0649994,-0.947991,-0.121999,-1.33299,-0.121999l-6.94693,0c-0.381996,0,-0.97899,0.0569994,-1.33199,0.121999l-0.0719993,0.0149999c-0.344997,0.0659993,-0.942991,0.122999,-1.33199,0.122999L9.16291,4.59495L8.16192,4.59495l-0.309997,0c-0.381996,0,-0.697993,0.292997,-0.697993,0.644994l0,0.246998l0,0.158998l0,0.172998c0,0.359996,0.315997,0.645994,0.697993,0.645994l1.61998,0c0.380996,0,0.97899,-0.122999,1.33199,-0.267997l0.0719993,-0.0269997c0.345997,-0.141999,0.95099,-0.265997,1.33199,-0.265997l6.94593,0c0.379996,0,0.97799,0.123999,1.33399,0.265997l0.0739993,0.0279997c0.345997,0.144999,0.944991,0.266997,1.33399,0.266997l2.22498,0c0.380996,0,0.698993,-0.294997,0.698993,-0.644994L24.8198,5.27895L24.8198,4.30596L24.8198,2.46198C24.5428,2.56997,24.1188,2.87297,24.1188,3.89596z" fill="#000000"/>
 <rect xmlns="http://www.w3.org/2000/svg" width="0.702993" id="ShadowExtra" y="3.28997" height="3.15297" x="22.4258"/>
 <path xmlns="http://www.w3.org/2000/svg" id="ReflexRight" d="M20.1588,0.892991c0.229998,0,0.490995,-0.100999,0.661993,-0.172998c0.201998,-0.0789992,0.576994,-0.143999,0.96699,-0.143999l1.46099,0c0.224998,0,0.224998,0.244998,0.224998,0.374996c0,0.129999,-0.0159998,0.381996,-0.224998,0.381996l-3.06097,0c-0.106999,0,-0.229998,-0.114999,-0.229998,-0.223998C19.9638,1.02199,20.0358,0.892991,20.1588,0.892991z" fill="#FFFFFF"/>
 <circle xmlns="http://www.w3.org/2000/svg" cx="7.40793" r="0.431996" id="ReflexLeft" fill="#FFFFFF" cy="0.942991"/>
 <rect xmlns="http://www.w3.org/2000/svg" width="0.702993" id="Reflex_gold" y="0.229998" height="1.61998" x="22.4258" fill="#FFFF33"/>
 <rect xmlns="http://www.w3.org/2000/svg" width="0.702993" id="Reflex_extra" y="0.589994" height="0.748993" x="22.4258" fill="#FFFFFF"/>
</g>
</g></g><g partID='855126370'><g transform='translate(464.174,20.586)' ><g transform='matrix(-1,0,0,-1,0,0)'  ><g xmlns="http://www.w3.org/2000/svg" id="breadboard">
 <circle xmlns="http://www.w3.org/2000/svg" cx="5.04" r="4.32" id="connector0pin" fill="none" cy="10.293"/>
 <circle xmlns="http://www.w3.org/2000/svg" cx="21.599" r="4.32" id="connector1pin" fill="none" cy="10.293"/>
 <circle xmlns="http://www.w3.org/2000/svg" cx="61.733" r="4.319" id="connector3pin" fill="none" cy="10.293"/>
 <circle xmlns="http://www.w3.org/2000/svg" cx="45.174" r="4.32" id="connector2pin" fill="none" cy="10.293"/>
 <g xmlns="http://www.w3.org/2000/svg" opacity="0.5">
  <path xmlns="http://www.w3.org/2000/svg" d="M50.635,18.786c0.384,0,0.751,-3.798,0.751,-8.481c0,-4.683,-0.095,-8.07,-0.441,-8.482c0.385,0,0.694,3.799,0.694,8.482c0,4.684,-0.311,8.481,-0.694,8.481L50.635,18.786z" fill="#D2D2D2"/>
 </g>
 <g xmlns="http://www.w3.org/2000/svg" opacity="0.5">
  <path xmlns="http://www.w3.org/2000/svg" d="M15.81,18.786c0.383,0,0.751,-3.798,0.751,-8.481c0,-4.683,-0.095,-8.07,-0.441,-8.482c0.382,0,0.692,3.799,0.692,8.482c0,4.684,-0.311,8.481,-0.692,8.481L15.81,18.786z" fill="#C8C8C8"/>
 </g>
 <g xmlns="http://www.w3.org/2000/svg" id="icon">
  <g xmlns="http://www.w3.org/2000/svg">
   <rect xmlns="http://www.w3.org/2000/svg" width="10.263" y="9.385" height="2.133" x="-5.495" fill="#6D6D6D"/>
  </g>
  <g xmlns="http://www.w3.org/2000/svg">
   <rect xmlns="http://www.w3.org/2000/svg" width="9.822" y="9.385" height="2.133" x="62.446" fill="#6D6D6D"/>
  </g>
 </g>
 <g xmlns="http://www.w3.org/2000/svg">
  <g xmlns="http://www.w3.org/2000/svg">
   <path xmlns="http://www.w3.org/2000/svg" d="M0.396,20.377c0,0.115,0.094,0.209,0.21,0.209l11.748,0c0.116,0,0.21,-0.094,0.21,-0.209L12.564,0.21c0,-0.115,-0.094,-0.21,-0.21,-0.21L0.606,0c-0.116,0,-0.21,0.095,-0.21,0.21L0.396,20.377z" fill="#505050"/>
  </g>
  <g xmlns="http://www.w3.org/2000/svg">
   <path xmlns="http://www.w3.org/2000/svg" d="M54.211,20.377c0,0.115,0.096,0.209,0.21,0.209l11.746,0c0.115,0,0.21,-0.094,0.21,-0.209L66.377,0.21c0,-0.115,-0.095,-0.21,-0.21,-0.21L54.421,0c-0.114,0,-0.21,0.095,-0.21,0.21L54.211,20.377z" fill="#505050"/>
  </g>
  <g xmlns="http://www.w3.org/2000/svg">
   <polygon xmlns="http://www.w3.org/2000/svg" points="54.211,0.58,54.211,19.997,65.561,20.002,65.561,0.586" fill="#7D7D7D"/>
  </g>
  <g xmlns="http://www.w3.org/2000/svg">
   <polygon xmlns="http://www.w3.org/2000/svg" points="12.564,19.997,12.564,0.58,1.212,0.585,1.212,20.002" fill="#7D7D7D"/>
  </g>
 </g>
 <g xmlns="http://www.w3.org/2000/svg">
  <g xmlns="http://www.w3.org/2000/svg" opacity="0.61">
   <rect xmlns="http://www.w3.org/2000/svg" width="45.361" y="1.822" height="16.933" x="10.643" fill="#D2D2D2"/>
  </g>
  <g xmlns="http://www.w3.org/2000/svg" opacity="0.53">
   <rect xmlns="http://www.w3.org/2000/svg" width="43.042" y="2.234" height="15.904" x="11.962" fill="#F0F0F0"/>
  </g>
  <g xmlns="http://www.w3.org/2000/svg">
   <rect xmlns="http://www.w3.org/2000/svg" width="41" y="10.039" height="0.5" x="13.198" fill="#B4B4B4"/>
  </g>
  <g xmlns="http://www.w3.org/2000/svg">
   <path xmlns="http://www.w3.org/2000/svg" d="M13.583,1.822l0,16.933c0,0,-9.189,0,-10.285,0s-1.738,-0.768,-1.738,-1.828L1.56,3.562c0,-1.095,0.678,-1.74,1.738,-1.74L13.583,1.822z" fill="#AAAAAA"/>
  </g>
  <g xmlns="http://www.w3.org/2000/svg">
   <path xmlns="http://www.w3.org/2000/svg" d="M53.19,18.754L53.19,1.821c0,0,9.189,0,10.286,0c1.096,0,1.738,0.767,1.738,1.829l0,13.365c0,1.096,-0.68,1.739,-1.738,1.739L53.19,18.754L53.19,18.754z" fill="#AAAAAA"/>
  </g>
  <g xmlns="http://www.w3.org/2000/svg" opacity="0.35">
   <path xmlns="http://www.w3.org/2000/svg" d="M3.765,15.633c-0.784,0,-1.822,-1.092,-1.822,-1.79l0,2.788c0,1.082,0.794,1.721,1.72,1.721l59.449,0c1.046,0,1.718,-0.639,1.718,-1.721l0,-2.788c0,0.698,-1.037,1.79,-1.82,1.79L3.765,15.633z"/>
  </g>
  <g xmlns="http://www.w3.org/2000/svg" id="path50" enable-background="new    " opacity="0.35">
   <path xmlns="http://www.w3.org/2000/svg" d="M62.519,5.675c0,0.471,-0.665,0.854,-1.49,0.854L5.815,6.529c-0.821,0,-1.49,-0.35,-1.49,-0.825l0,-2.58c0,-0.471,0.668,-0.89,1.49,-0.89l55.218,0c0.821,0,1.491,0.381,1.491,0.854L62.519,5.675L62.519,5.675z" fill="#FFFFFF"/>
  </g>
 </g>
 <g xmlns="http://www.w3.org/2000/svg">
  <g xmlns="http://www.w3.org/2000/svg">
   <g xmlns="http://www.w3.org/2000/svg">
    <path xmlns="http://www.w3.org/2000/svg" d="M9.03,2.882c0,0.116,-0.094,0.21,-0.21,0.21L4.977,3.092c-0.116,0,-0.21,-0.094,-0.21,-0.21L4.767,0.21C4.767,0.095,4.861,0,4.977,0L8.82,0c0.116,0,0.21,0.095,0.21,0.21L9.03,2.882z" fill="#505050"/>
   </g>
  </g>
  <g xmlns="http://www.w3.org/2000/svg">
   <g xmlns="http://www.w3.org/2000/svg">
    <path xmlns="http://www.w3.org/2000/svg" d="M62.016,2.882c0,0.116,-0.096,0.21,-0.21,0.21l-3.842,0c-0.114,0,-0.21,-0.094,-0.21,-0.21L57.754,0.21c0,-0.116,0.096,-0.21,0.21,-0.21l3.842,0c0.114,0,0.21,0.095,0.21,0.21L62.016,2.882z" fill="#505050"/>
   </g>
  </g>
  <g xmlns="http://www.w3.org/2000/svg">
   <g xmlns="http://www.w3.org/2000/svg">
    <path xmlns="http://www.w3.org/2000/svg" d="M9.03,2.882c0,0.116,-0.094,0.21,-0.21,0.21L4.977,3.092c-0.116,0,-0.21,-0.094,-0.21,-0.21L4.767,0.21C4.767,0.095,4.861,0,4.977,0L8.82,0c0.116,0,0.21,0.095,0.21,0.21L9.03,2.882z" fill="#505050"/>
   </g>
  </g>
  <g xmlns="http://www.w3.org/2000/svg">
   <g xmlns="http://www.w3.org/2000/svg">
    <path xmlns="http://www.w3.org/2000/svg" d="M8.682,1.617C8.658,1.73,8.543,1.822,8.428,1.822L5.372,1.822c-0.116,0,-0.229,-0.092,-0.254,-0.205L4.812,0.205C4.787,0.092,4.861,0,4.977,0L8.82,0c0.116,0,0.19,0.092,0.166,0.205L8.682,1.617z" fill="#5F5F5F"/>
   </g>
  </g>
  <g xmlns="http://www.w3.org/2000/svg">
   <g xmlns="http://www.w3.org/2000/svg">
    <path xmlns="http://www.w3.org/2000/svg" d="M9.03,20.377c0,0.115,-0.094,0.209,-0.21,0.209L4.977,20.586c-0.116,0,-0.21,-0.094,-0.21,-0.209l0,-2.674c0,-0.115,0.094,-0.209,0.21,-0.209L8.82,17.494c0.116,0,0.21,0.094,0.21,0.209L9.03,20.377z" fill="#505050"/>
   </g>
  </g>
  <g xmlns="http://www.w3.org/2000/svg">
   <g xmlns="http://www.w3.org/2000/svg">
    <path xmlns="http://www.w3.org/2000/svg" d="M62.016,20.377c0,0.115,-0.096,0.209,-0.21,0.209l-3.842,0c-0.114,0,-0.21,-0.094,-0.21,-0.209l0,-2.674c0,-0.115,0.096,-0.209,0.21,-0.209l3.842,0c0.114,0,0.21,0.094,0.21,0.209L62.016,20.377z" fill="#505050"/>
   </g>
  </g>
  <g xmlns="http://www.w3.org/2000/svg">
   <g xmlns="http://www.w3.org/2000/svg">
    <path xmlns="http://www.w3.org/2000/svg" d="M61.666,1.617c-0.023,0.113,-0.139,0.205,-0.254,0.205l-3.056,0c-0.115,0,-0.229,-0.092,-0.254,-0.205l-0.305,-1.412C57.775,0.092,57.85,0,57.965,0l3.842,0c0.114,0,0.189,0.092,0.166,0.205L61.666,1.617z" fill="#5F5F5F"/>
   </g>
  </g>
  <g xmlns="http://www.w3.org/2000/svg">
   <g xmlns="http://www.w3.org/2000/svg">
    <path xmlns="http://www.w3.org/2000/svg" d="M58.102,18.959c0.024,-0.113,0.14,-0.205,0.255,-0.205l3.056,0c0.115,0,0.229,0.092,0.254,0.205l0.307,1.41c0.023,0.113,-0.052,0.205,-0.166,0.205l-3.845,0c-0.114,0,-0.189,-0.092,-0.165,-0.205L58.102,18.959z" fill="#3C3C3C"/>
   </g>
  </g>
  <g xmlns="http://www.w3.org/2000/svg">
   <g xmlns="http://www.w3.org/2000/svg">
    <path xmlns="http://www.w3.org/2000/svg" d="M5.115,18.959c0.024,-0.113,0.139,-0.205,0.254,-0.205l3.057,0c0.115,0,0.229,0.092,0.254,0.205l0.303,1.41c0.023,0.113,-0.05,0.205,-0.166,0.205l-3.84,0c-0.116,0,-0.19,-0.092,-0.166,-0.205L5.115,18.959z" fill="#3C3C3C"/>
   </g>
  </g>
 </g>
 <g xmlns="http://www.w3.org/2000/svg" opacity="0.5">
  <path xmlns="http://www.w3.org/2000/svg" d="M16.102,1.822c-0.385,0,-0.751,3.798,-0.751,8.482c0,4.683,0.095,8.069,0.44,8.481c-0.385,0,-0.694,-3.799,-0.694,-8.481c0,-4.685,0.31,-8.482,0.694,-8.482L16.102,1.822z" fill="#D2D2D2"/>
 </g>
 <g xmlns="http://www.w3.org/2000/svg" opacity="0.5">
  <path xmlns="http://www.w3.org/2000/svg" d="M50.927,1.822c-0.383,0,-0.752,3.798,-0.752,8.482c0,4.683,0.096,8.069,0.441,8.481c-0.384,0,-0.694,-3.799,-0.694,-8.481c0,-4.685,0.312,-8.482,0.694,-8.482L50.927,1.822z" fill="#C8C8C8"/>
 </g>
 <g xmlns="http://www.w3.org/2000/svg">
  <path xmlns="http://www.w3.org/2000/svg" d="M63.403,18.754"/>
 </g>
</g>
</g></g></g><g partID='855128240'><g transform='translate(217.157,282.651)' ><g  id="breadboard">
 <rect  width="137.328" id="rect875" height="115.873" y="30.2422" stroke-width="0" x="0.0918355" stroke="none" fill="#666666"/>
 <text  font-size="5.38108" id="text3685" y="92.7456" stroke-width="0.072" font-family="OCRA" x="21.7751" fill="#ffffff">SEALED LEAD-ACID BATTERY</text>
 <g transform="matrix(0.81350923,-0.58155201,0,1,0,0)">
  <rect  width="51.8275" y="128.376" height="116.105" id="rect894" stroke-width="0" x="168.919" stroke="none" fill="#4d4d4d"/>
 </g>
 <line  y2="109.304" id="line918" x2="179.381" stroke-width="3.59999" y1="140.156" stroke="#333333" fill="#333333" x1="137.526"/>
 <text  font-size="5.38108" y="102.013" id="text896" stroke-width="0.072" font-family="OCRA" x="48.5121" fill="#ffffff">12V 35AH</text>
 <line  y2="127.576" id="line36" x2="127.163" stroke-width="3.6" y1="127.576" stroke-linecap="round" stroke="#ffffff" fill="none" x1="10.1481"/>
 <line  y2="60.6114" x2="127.163" id="line904" stroke-width="3.6" y1="60.6114" stroke-linecap="round" stroke="#ffffff" fill="none" x1="10.1481"/>
 <line  y2="127.522" id="line906" x2="10.1659" stroke-width="3.6" y1="60.6901" stroke-linecap="round" stroke="#ffffff" fill="none" x1="10.1659"/>
 <g transform="matrix(1,0,-0.81643496,0.5774374,0,0)">
  <rect  width="137.356" y="0.0931793" height="52.2324" id="rect908" stroke-width="0" x="42.7204" stroke="none" fill="#333333"/>
 </g>
 <line  y2="127.522" x2="127.204" id="line910" stroke-width="3.6" y1="60.6901" stroke-linecap="round" stroke="#ffffff" fill="none" x1="127.204"/>
 <line  y2="37.4616" id="line912" x2="137.477" stroke-width="3.6" y1="37.4616" stroke="#4d4d4d" fill="#666666" x1="0.0959158"/>
 <line  y2="6.83978" x2="179.381" id="line914" stroke-width="3.59999" y1="37.6917" stroke="#333333" fill="#333333" x1="137.526"/>
 <line  y2="140.038" x2="137.477" id="line916" stroke-width="3.6" y1="140.038" stroke="#4d4d4d" fill="#666666" x1="0.0959158"/>
 <g transform="matrix(1,0,-0.84169905,0.53994694,0,0)">
  <rect  width="9.5825" id="rect920" height="6.79372" y="31.441" stroke-width="0" x="68.1821" stroke="none" fill="#d40000"/>
 </g>
 <rect  width="9.53945" id="rect926" height="3.64928" y="20.6403" stroke-width="0" x="36.0009" stroke="none" fill="#4d4d4d"/>
 <g transform="matrix(0.83942996,-0.54346789,0,1,0,0)">
  <rect  width="6.79687" y="50.1747" height="3.61855" id="rect928" stroke-width="0" x="54.2562" stroke="#333333" fill="#666666"/>
 </g>
 <rect  width="3.44057" id="rect936" height="5.54315" y="13.7444" stroke-width="0" x="41.7172" stroke="none" fill="#cccccc"/>
 <g transform="matrix(0.50638731,-0.86230615,0,1,0,0)">
  <rect  width="1.23685" y="90.6621" height="5.54321" id="rect938" stroke-width="0" x="89.1655" stroke="#4d4d4d" fill="#b3b3b3"/>
 </g>
 <g transform="matrix(1,0,-0.50955632,0.8604373,0,0)">
  <rect  width="3.45638" y="14.7757" height="1.1991" id="rect940" stroke-width="0" x="49.8475" stroke="none" fill="#999999"/>
 </g>
 <g transform="matrix(1,0,-0.84169905,0.53994694,0,0)">
  <rect  width="9.5825" y="31.441" height="6.79372" id="rect952" stroke-width="0" x="147.382" stroke="none" fill="#000000"/>
 </g>
 <rect  width="9.53945" y="20.6403" height="3.64928" id="rect954" stroke-width="0" x="115.201" stroke="none" fill="#4d4d4d"/>
 <g transform="matrix(0.83942996,-0.54346789,0,1,0,0)">
  <rect  width="6.79687" id="rect956" height="3.61855" y="101.451" stroke-width="0" x="148.606" stroke="#333333" fill="#666666"/>
 </g>
 <rect  width="3.44057" y="13.7444" height="5.54315" id="rect958" stroke-width="0" x="120.917" stroke="none" fill="#cccccc"/>
 <g transform="matrix(0.50638731,-0.86230615,0,1,0,0)">
  <rect  width="1.23685" id="rect960" height="5.54321" y="225.528" stroke-width="0" x="245.568" stroke="#4d4d4d" fill="#b3b3b3"/>
 </g>
 <g transform="matrix(1,0,-0.50955632,0.8604373,0,0)">
  <rect  width="3.45638" id="rect962" height="1.1991" y="14.7757" stroke-width="0" x="129.047" stroke="none" fill="#999999"/>
 </g>
 <circle  r="0.840793" cx="122.643" fill-opacity="1" id="connector0pin" stroke-width="0.75" stroke="#4d4d4d" fill="#f2f2f2" cy="15.642"/>
 <circle  cx="43.443" r="0.840793" fill-opacity="1" id="connector1pin" stroke-width="0.75" stroke="#4d4d4d" fill="#f2f2f2" cy="15.642"/>
</g>
</g></g><g partID='855121390'><line stroke-linecap='round' stroke='#000000' x1='383.022' y1='571.808' x2='382.986' y2='514.387' stroke-width='3.2' /><line stroke-linecap='round' stroke='#404040' x1='383.022' y1='571.808' x2='382.986' y2='514.387' stroke-width='1.6' /></g><g partID='855121740'><line stroke-linecap='round' stroke='#000000' x1='95.0149' y1='514.421' x2='95.0017' y2='571.78' stroke-width='3.2' /><line stroke-linecap='round' stroke='#404040' x1='95.0149' y1='514.421' x2='95.0017' y2='571.78' stroke-width='1.6' /></g><g partID='855124530'><line stroke-linecap='round' stroke='#000000' x1='382.986' y1='514.387' x2='95.0149' y2='514.421' stroke-width='3.2' /><line stroke-linecap='round' stroke='#404040' x1='382.986' y1='514.387' x2='95.0149' y2='514.421' stroke-width='1.6' /></g><g partID='855121600'><line stroke-linecap='round' stroke='#8c0000' x1='390.281' y1='499.994' x2='88.0466' y2='499.813' stroke-width='3.2' /><line stroke-linecap='round' stroke='#cc1414' x1='390.281' y1='499.994' x2='88.0466' y2='499.813' stroke-width='1.6' /></g><g partID='855121530'><line stroke-linecap='round' stroke='#8c0000' x1='88.0466' y1='499.813' x2='87.7997' y2='571.893' stroke-width='3.2' /><line stroke-linecap='round' stroke='#cc1414' x1='88.0466' y1='499.813' x2='87.7997' y2='571.893' stroke-width='1.6' /></g><g partID='855121460'><line stroke-linecap='round' stroke='#8c0000' x1='390.2' y1='571.893' x2='390.281' y2='499.994' stroke-width='3.2' /><line stroke-linecap='round' stroke='#cc1414' x1='390.2' y1='571.893' x2='390.281' y2='499.994' stroke-width='1.6' /></g><g partID='855125120'><line stroke-linecap='round' stroke='#d6d63a' x1='30.1997' y1='507.093' x2='80.5442' y2='506.896' stroke-width='3.2' /><line stroke-linecap='round' stroke='#fff800' x1='30.1997' y1='507.093' x2='80.5442' y2='506.896' stroke-width='1.6' /></g><g partID='855125210'><line stroke-linecap='round' stroke='#d6d63a' x1='80.5442' y1='506.896' x2='80.6217' y2='571.808' stroke-width='3.2' /><line stroke-linecap='round' stroke='#fff800' x1='80.5442' y1='506.896' x2='80.6217' y2='571.808' stroke-width='1.6' /></g><g partID='855126060'><line stroke-linecap='round' stroke='#d6d63a' x1='397.162' y1='506.896' x2='397.402' y2='571.78' stroke-width='3.2' /><line stroke-linecap='round' stroke='#fff800' x1='397.162' y1='506.896' x2='397.402' y2='571.78' stroke-width='1.6' /></g><g partID='855126030'><line stroke-linecap='round' stroke='#d6d63a' x1='447.855' y1='507.093' x2='397.162' y2='506.896' stroke-width='3.2' /><line stroke-linecap='round' stroke='#fff800' x1='447.855' y1='507.093' x2='397.162' y2='506.896' stroke-width='1.6' /></g><g partID='855126950'><line stroke-linecap='round' stroke='#8c0000' x1='390.082' y1='499.813' x2='462.274' y2='499.813' stroke-width='3.2' /><line stroke-linecap='round' stroke='#cc1414' x1='390.082' y1='499.813' x2='462.274' y2='499.813' stroke-width='1.6' /></g><g partID='855126760'><line stroke-linecap='round' stroke='#8c0000' x1='462.274' y1='499.813' x2='459.134' y2='10.293' stroke-width='3.2' /><line stroke-linecap='round' stroke='#cc1414' x1='462.274' y1='499.813' x2='459.134' y2='10.293' stroke-width='1.6' /></g><g partID='855126540'><line stroke-linecap='round' stroke='#8c0000' x1='390.2' y1='571.893' x2='390.082' y2='499.813' stroke-width='3.2' /><line stroke-linecap='round' stroke='#cc1414' x1='390.2' y1='571.893' x2='390.082' y2='499.813' stroke-width='1.6' /></g><g partID='855128930'><line stroke-linecap='round' stroke='#000000' x1='383.182' y1='449.385' x2='426.421' y2='449.542' stroke-width='3.2' /><line stroke-linecap='round' stroke='#404040' x1='383.182' y1='449.385' x2='426.421' y2='449.542' stroke-width='1.6' /></g><g partID='855128600'><line stroke-linecap='round' stroke='#000000' x1='426.421' y1='449.542' x2='426.421' y2='298.44' stroke-width='3.2' /><line stroke-linecap='round' stroke='#404040' x1='426.421' y1='449.542' x2='426.421' y2='298.44' stroke-width='1.6' /></g><g partID='855128270'><line stroke-linecap='round' stroke='#000000' x1='383.022' y1='571.808' x2='383.098' y2='513.998' stroke-width='3.2' /><line stroke-linecap='round' stroke='#404040' x1='383.022' y1='571.808' x2='383.098' y2='513.998' stroke-width='1.6' /></g><g partID='855128490'><line stroke-linecap='round' stroke='#000000' x1='426.421' y1='298.44' x2='339.8' y2='298.293' stroke-width='3.2' /><line stroke-linecap='round' stroke='#404040' x1='426.421' y1='298.44' x2='339.8' y2='298.293' stroke-width='1.6' /></g><g partID='855128380'><line stroke-linecap='round' stroke='#000000' x1='383.098' y1='513.998' x2='383.182' y2='449.385' stroke-width='3.2' /><line stroke-linecap='round' stroke='#404040' x1='383.098' y1='513.998' x2='383.182' y2='449.385' stroke-width='1.6' /></g><g partID='855128710'><line stroke-linecap='round' stroke='#8c0000' x1='419' y1='10.293' x2='260.536' y2='10.2455' stroke-width='3.2' /><line stroke-linecap='round' stroke='#cc1414' x1='419' y1='10.293' x2='260.536' y2='10.2455' stroke-width='1.6' /></g><g partID='855128780'><line stroke-linecap='round' stroke='#8c0000' x1='260.536' y1='10.2455' x2='260.6' y2='298.293' stroke-width='3.2' /><line stroke-linecap='round' stroke='#cc1414' x1='260.536' y1='10.2455' x2='260.6' y2='298.293' stroke-width='1.6' /></g></svg>