<?xml version='1.0' encoding='UTF-8' standalone='no'?>
<!-- Created with Fritzing (http://www.fritzing.org/) -->
<svg xmlns:svg='http://www.w3.org/2000/svg' xmlns='http://www.w3.org/2000/svg' version='1.2' baseProfile='tiny' x='0in' y='0in' width='2.91018in' height='1.79778in' viewBox='0 0 209.533 129.44' >
<g partID='855120710'><g transform='translate(132.779,77.6646)' ><g id="schematic">
<g width="0.071" id="connector0terminal" y="28.877" height="0.071" x="4.434"/>
<rect width="0.468" id="connector0pin" y="25.494" height="3.538" x="4.224"/>
<g width="0.071" id="connector1terminal" y="0.288" height="0.071" x="18.769"/>
<rect width="0.468" id="connector1pin" y="0.252" height="7.539" x="18.563"/>
<rect width="0.071" y="28.877" height="0.071" x="33.258"/>
<g transform="matrix(1, 0, 0, 1, 42.4732, 0)">
<g id="g_x5F_g">
<g id="g36">
<path id="path38" d="M-5.704,14.518c0.123,0,0.236,0.065,0.296,0.173l0,0c0.062,0.106,0.059,0.237,-0.004,0.342l0,0l-3.587,6.011c-0.061,0.103,-0.172,0.167,-0.292,0.167l0,0c-0.119,0,-0.231,-0.064,-0.292,-0.166l0,0l-3.595,-6.01c-0.063,-0.106,-0.064,-0.237,-0.004,-0.343l0,0c0.061,-0.107,0.173,-0.173,0.297,-0.173l0,0L-5.704,14.519M-9.29,20.205l2.987,-5.005l-5.981,0L-9.29,20.205L-9.29,20.205z"/>
<path id="path40" d="M-12.964,21.21c-0.188,0,-0.341,-0.151,-0.341,-0.34l0,0c0,-0.189,0.152,-0.341,0.341,-0.341l0,0l7.173,0c0.189,0,0.341,0.152,0.341,0.341l0,0c0,0.188,-0.152,0.34,-0.341,0.34l0,0L-12.964,21.21L-12.964,21.21z"/>
<path id="path42" d="M-9.63,14.813L-9.63,7.452c0,-0.071,0.152,-0.128,0.341,-0.128l0,0c0.188,0,0.341,0.057,0.341,0.128l0,0l0,7.361c0,0.071,-0.152,0.128,-0.341,0.128l0,0C-9.478,14.942,-9.63,14.884,-9.63,14.813L-9.63,14.813z"/>
<path id="path44" d="M-9.63,28.907l0,-8.071c0,-0.188,0.153,-0.341,0.341,-0.341l0,0c0.188,0,0.341,0.152,0.341,0.341l0,0l0,8.071c0,0.188,-0.152,0.34,-0.341,0.34l0,0C-9.478,29.248,-9.63,29.095,-9.63,28.907L-9.63,28.907z"/>
<polygon id="polygon46" points="-1.91,23.649,-3.585,22.575,-3.086,22.176,-2.586,21.778"/>
<path id="path48" d="M-4.17,22.604l0.872,-0.694l0.5,-0.399l0.372,-0.296l1.179,3.264L-4.17,22.604L-4.17,22.604z"/>
<path id="path50" d="M-2.371,23.618l-3.205,-4.016c-0.117,-0.148,-0.092,-0.362,0.055,-0.479l0,0c0.148,-0.117,0.362,-0.093,0.479,0.054l0,0l3.204,4.016c0.117,0.147,0.093,0.362,-0.054,0.479l0,0c-0.064,0.05,-0.138,0.074,-0.212,0.074l0,0C-2.205,23.746,-2.304,23.702,-2.371,23.618L-2.371,23.618z"/>
<polygon id="polygon52" points="-4.143,25.349,-5.817,24.274,-5.317,23.876,-4.818,23.478"/>
<path id="path54" d="M-6.401,24.304l0.872,-0.695l0.499,-0.398l0.371,-0.296l1.182,3.265L-6.401,24.304L-6.401,24.304L-6.401,24.304z"/>
<path id="path56" d="M-4.603,25.318l-2.497,-3.13c-0.118,-0.147,-0.092,-0.361,0.053,-0.479l0,0c0.147,-0.118,0.362,-0.093,0.479,0.054l0,0l2.496,3.129c0.118,0.147,0.093,0.361,-0.053,0.479l0,0c-0.064,0.049,-0.138,0.075,-0.212,0.075l0,0C-4.436,25.446,-4.535,25.402,-4.603,25.318L-4.603,25.318z"/>
</g>
</g>
</g>
<g id="g_x5F_r">
<g id="g59">
<path id="path61" d="M8.051,14.519c0.123,0,0.236,0.065,0.296,0.173l0,0c0.061,0.106,0.06,0.237,-0.004,0.342l0,0l-3.586,6.011c-0.061,0.103,-0.172,0.167,-0.292,0.167l0,0c-0.12,0,-0.232,-0.064,-0.292,-0.166l0,0l-3.595,-6.011c-0.063,-0.106,-0.064,-0.237,-0.004,-0.343l0,0c0.061,-0.107,0.173,-0.173,0.297,-0.173l0,0L8.051,14.519M4.464,20.206L7.451,15.2L1.47,15.2L4.464,20.206L4.464,20.206z"/>
<path id="path63" d="M0.79,21.21c-0.189,0,-0.341,-0.151,-0.341,-0.34l0,0c0,-0.189,0.152,-0.341,0.341,-0.341l0,0l7.173,0c0.188,0,0.341,0.152,0.341,0.341l0,0c0,0.188,-0.153,0.34,-0.341,0.34l0,0L0.79,21.21L0.79,21.21z"/>
<path id="path65" d="M4.124,14.778L4.124,7.491c0,-0.188,0.153,-0.34,0.341,-0.34l0,0c0.188,0,0.34,0.152,0.34,0.34l0,0l0,7.287c0,0.188,-0.152,0.341,-0.34,0.341l0,0C4.276,15.119,4.124,14.966,4.124,14.778L4.124,14.778z"/>
<path id="path67" d="M4.124,28.907l0,-8.07c0,-0.188,0.152,-0.341,0.34,-0.341l0,0c0.188,0,0.341,0.152,0.341,0.341l0,0l0,8.07c0,0.188,-0.153,0.34,-0.341,0.34l0,0C4.276,29.248,4.124,29.095,4.124,28.907L4.124,28.907z"/>
<polygon id="polygon69" points="11.168,21.778,11.843,23.649,10.169,22.575,10.669,22.176"/>
<path id="path71" d="M9.585,22.604l0.871,-0.694l0.499,-0.399l0.372,-0.296l1.179,3.264L9.585,22.604L9.585,22.604z"/>
<path id="path73" d="M11.382,23.618l-3.205,-4.016c-0.118,-0.148,-0.093,-0.362,0.054,-0.479l0,0c0.147,-0.117,0.362,-0.093,0.479,0.054l0,0l3.205,4.016c0.117,0.147,0.093,0.362,-0.054,0.479l0,0c-0.063,0.05,-0.138,0.074,-0.212,0.074l0,0C11.549,23.747,11.45,23.703,11.382,23.618L11.382,23.618z"/>
<polygon id="polygon75" points="8.936,23.479,9.612,25.349,7.938,24.275,8.437,23.877"/>
<path id="path77" d="M7.354,24.305l0.871,-0.695l0.499,-0.398l0.372,-0.296l1.182,3.265L7.354,24.305L7.354,24.305z"/>
<path id="path79" d="M9.151,25.318l-2.497,-3.13c-0.118,-0.147,-0.093,-0.361,0.054,-0.479l0,0c0.147,-0.118,0.362,-0.093,0.479,0.054l0,0l2.496,3.129c0.118,0.147,0.093,0.361,-0.054,0.479l0,0c-0.063,0.049,-0.138,0.075,-0.212,0.075l0,0C9.317,25.447,9.218,25.403,9.151,25.318L9.151,25.318z"/>
</g>
</g>
<line y2="7.497" stroke-linejoin="round" id="line81" x2="33.193" stroke-width="0.6815" y1="7.497" stroke-linecap="round" stroke="#000000" fill="none" x1="4.465"/>
<g transform="matrix(1, 0, 0, 1, 0.5005, 25.647)">
<text font-size="4.7705" id="text83" font-family="'DroidSans'">R</text>
</g>
<g transform="matrix(1, 0, 0, 1, 29.2197, 25.6465)">
<text font-size="4.7705" id="text85" font-family="'DroidSans'">G</text>
</g>
<rect width="0.784" id="connector4" y="25.7" height="3.461" x="32.766" fill="none"/>
<rect width="0.784" id="connector4_1_" y="25.7" height="3.461" x="32.766" fill="none"/>
<rect width="0.784" id="connector4_2_" y="25.7" height="3.461" x="32.766" fill="none"/>
<rect width="0.784" id="connector4_3_" y="25.7" height="3.461" x="32.766" fill="none"/>
</g>
</g></g><g partID='855120740'><g transform='translate(39.1788,77.6646)' ><g transform='matrix(1,0,0,1,0,0)'  ><g id="schematic">
<g width="0.071" id="connector0terminal" y="28.877" height="0.071" x="4.434"/>
<rect width="0.468" id="connector0pin" y="25.494" height="3.538" x="4.224"/>
<g width="0.071" id="connector1terminal" y="0.288" height="0.071" x="18.769"/>
<rect width="0.468" id="connector1pin" y="0.252" height="7.539" x="18.563"/>
<rect width="0.071" y="28.877" height="0.071" x="33.258"/>
<g transform="matrix(1, 0, 0, 1, 42.4732, 0)">
<g id="g_x5F_g">
<g id="g36">
<path id="path38" d="M-5.704,14.518c0.123,0,0.236,0.065,0.296,0.173l0,0c0.062,0.106,0.059,0.237,-0.004,0.342l0,0l-3.587,6.011c-0.061,0.103,-0.172,0.167,-0.292,0.167l0,0c-0.119,0,-0.231,-0.064,-0.292,-0.166l0,0l-3.595,-6.01c-0.063,-0.106,-0.064,-0.237,-0.004,-0.343l0,0c0.061,-0.107,0.173,-0.173,0.297,-0.173l0,0L-5.704,14.519M-9.29,20.205l2.987,-5.005l-5.981,0L-9.29,20.205L-9.29,20.205z"/>
<path id="path40" d="M-12.964,21.21c-0.188,0,-0.341,-0.151,-0.341,-0.34l0,0c0,-0.189,0.152,-0.341,0.341,-0.341l0,0l7.173,0c0.189,0,0.341,0.152,0.341,0.341l0,0c0,0.188,-0.152,0.34,-0.341,0.34l0,0L-12.964,21.21L-12.964,21.21z"/>
<path id="path42" d="M-9.63,14.813L-9.63,7.452c0,-0.071,0.152,-0.128,0.341,-0.128l0,0c0.188,0,0.341,0.057,0.341,0.128l0,0l0,7.361c0,0.071,-0.152,0.128,-0.341,0.128l0,0C-9.478,14.942,-9.63,14.884,-9.63,14.813L-9.63,14.813z"/>
<path id="path44" d="M-9.63,28.907l0,-8.071c0,-0.188,0.153,-0.341,0.341,-0.341l0,0c0.188,0,0.341,0.152,0.341,0.341l0,0l0,8.071c0,0.188,-0.152,0.34,-0.341,0.34l0,0C-9.478,29.248,-9.63,29.095,-9.63,28.907L-9.63,28.907z"/>
<polygon id="polygon46" points="-1.91,23.649,-3.585,22.575,-3.086,22.176,-2.586,21.778"/>
<path id="path48" d="M-4.17,22.604l0.872,-0.694l0.5,-0.399l0.372,-0.296l1.179,3.264L-4.17,22.604L-4.17,22.604z"/>
<path id="path50" d="M-2.371,23.618l-3.205,-4.016c-0.117,-0.148,-0.092,-0.362,0.055,-0.479l0,0c0.148,-0.117,0.362,-0.093,0.479,0.054l0,0l3.204,4.016c0.117,0.147,0.093,0.362,-0.054,0.479l0,0c-0.064,0.05,-0.138,0.074,-0.212,0.074l0,0C-2.205,23.746,-2.304,23.702,-2.371,23.618L-2.371,23.618z"/>
<polygon id="polygon52" points="-4.143,25.349,-5.817,24.274,-5.317,23.876,-4.818,23.478"/>
<path id="path54" d="M-6.401,24.304l0.872,-0.695l0.499,-0.398l0.371,-0.296l1.182,3.265L-6.401,24.304L-6.401,24.304L-6.401,24.304z"/>
<path id="path56" d="M-4.603,25.318l-2.497,-3.13c-0.118,-0.147,-0.092,-0.361,0.053,-0.479l0,0c0.147,-0.118,0.362,-0.093,0.479,0.054l0,0l2.496,3.129c0.118,0.147,0.093,0.361,-0.053,0.479l0,0c-0.064,0.049,-0.138,0.075,-0.212,0.075l0,0C-4.436,25.446,-4.535,25.402,-4.603,25.318L-4.603,25.318z"/>
</g>
</g>
</g>
<g id="g_x5F_r">
<g id="g59">
<path id="path61" d="M8.051,14.519c0.123,0,0.236,0.065,0.296,0.173l0,0c0.061,0.106,0.06,0.237,-0.004,0.342l0,0l-3.586,6.011c-0.061,0.103,-0.172,0.167,-0.292,0.167l0,0c-0.12,0,-0.232,-0.064,-0.292,-0.166l0,0l-3.595,-6.011c-0.063,-0.106,-0.064,-0.237,-0.004,-0.343l0,0c0.061,-0.107,0.173,-0.173,0.297,-0.173l0,0L8.051,14.519M4.464,20.206L7.451,15.2L1.47,15.2L4.464,20.206L4.464,20.206z"/>
<path id="path63" d="M0.79,21.21c-0.189,0,-0.341,-0.151,-0.341,-0.34l0,0c0,-0.189,0.152,-0.341,0.341,-0.341l0,0l7.173,0c0.188,0,0.341,0.152,0.341,0.341l0,0c0,0.188,-0.153,0.34,-0.341,0.34l0,0L0.79,21.21L0.79,21.21z"/>
<path id="path65" d="M4.124,14.778L4.124,7.491c0,-0.188,0.153,-0.34,0.341,-0.34l0,0c0.188,0,0.34,0.152,0.34,0.34l0,0l0,7.287c0,0.188,-0.152,0.341,-0.34,0.341l0,0C4.276,15.119,4.124,14.966,4.124,14.778L4.124,14.778z"/>
<path id="path67" d="M4.124,28.907l0,-8.07c0,-0.188,0.152,-0.341,0.34,-0.341l0,0c0.188,0,0.341,0.152,0.341,0.341l0,0l0,8.07c0,0.188,-0.153,0.34,-0.341,0.34l0,0C4.276,29.248,4.124,29.095,4.124,28.907L4.124,28.907z"/>
<polygon id="polygon69" points="11.168,21.778,11.843,23.649,10.169,22.575,10.669,22.176"/>
<path id="path71" d="M9.585,22.604l0.871,-0.694l0.499,-0.399l0.372,-0.296l1.179,3.264L9.585,22.604L9.585,22.604z"/>
<path id="path73" d="M11.382,23.618l-3.205,-4.016c-0.118,-0.148,-0.093,-0.362,0.054,-0.479l0,0c0.147,-0.117,0.362,-0.093,0.479,0.054l0,0l3.205,4.016c0.117,0.147,0.093,0.362,-0.054,0.479l0,0c-0.063,0.05,-0.138,0.074,-0.212,0.074l0,0C11.549,23.747,11.45,23.703,11.382,23.618L11.382,23.618z"/>
<polygon id="polygon75" points="8.936,23.479,9.612,25.349,7.938,24.275,8.437,23.877"/>
<path id="path77" d="M7.354,24.305l0.871,-0.695l0.499,-0.398l0.372,-0.296l1.182,3.265L7.354,24.305L7.354,24.305z"/>
<path id="path79" d="M9.151,25.318l-2.497,-3.13c-0.118,-0.147,-0.093,-0.361,0.054,-0.479l0,0c0.147,-0.118,0.362,-0.093,0.479,0.054l0,0l2.496,3.129c0.118,0.147,0.093,0.361,-0.054,0.479l0,0c-0.063,0.049,-0.138,0.075,-0.212,0.075l0,0C9.317,25.447,9.218,25.403,9.151,25.318L9.151,25.318z"/>
</g>
</g>
<line y2="7.497" stroke-linejoin="round" id="line81" x2="33.193" stroke-width="0.6815" y1="7.497" stroke-linecap="round" stroke="#000000" fill="none" x1="4.465"/>
<g transform="matrix(1, 0, 0, 1, 0.5005, 25.647)">
<text font-size="4.7705" id="text83" font-family="'DroidSans'">R</text>
</g>
<g transform="matrix(1, 0, 0, 1, 29.2197, 25.6465)">
<text font-size="4.7705" id="text85" font-family="'DroidSans'">G</text>
</g>
<rect width="0.784" id="connector4" y="25.7" height="3.461" x="32.766" fill="none"/>
<rect width="0.784" id="connector4_1_" y="25.7" height="3.461" x="32.766" fill="none"/>
<rect width="0.784" id="connector4_2_" y="25.7" height="3.461" x="32.766" fill="none"/>
<rect width="0.784" id="connector4_3_" y="25.7" height="3.461" x="32.766" fill="none"/>
</g>
</g></g></g><g partID='855125960'><g transform='translate(0.0329645,110.892)' ><g id="schematic" xmlns="http://www.w3.org/2000/svg">
<line y2="0.216" class="other" x2="8.63003" stroke-width="0.432002" y1="3.096" xmlns="http://www.w3.org/2000/svg" stroke-linecap="round" stroke="#000000" x1="7.55002"/>
<line y2="5.976" class="other" x2="10.43" stroke-width="0.432002" y1="0.216" xmlns="http://www.w3.org/2000/svg" stroke-linecap="round" stroke="#000000" x1="8.63003"/>
<line y2="0.216" class="other" x2="12.23" stroke-width="0.432002" y1="5.976" xmlns="http://www.w3.org/2000/svg" stroke-linecap="round" stroke="#000000" x1="10.43"/>
<line y2="5.976" class="other" x2="14.03" stroke-width="0.432002" y1="0.216" xmlns="http://www.w3.org/2000/svg" stroke-linecap="round" stroke="#000000" x1="12.23"/>
<line y2="0.216" class="other" x2="15.8301" stroke-width="0.432002" y1="5.976" xmlns="http://www.w3.org/2000/svg" stroke-linecap="round" stroke="#000000" x1="14.03"/>
<line y2="5.976" class="other" x2="17.6301" stroke-width="0.432002" y1="0.216" xmlns="http://www.w3.org/2000/svg" stroke-linecap="round" stroke="#000000" x1="15.8301"/>
<line y2="0.216" class="other" x2="19.4301" stroke-width="0.432002" y1="5.976" xmlns="http://www.w3.org/2000/svg" stroke-linecap="round" stroke="#000000" x1="17.6301"/>
<line y2="5.976" class="other" x2="21.2301" stroke-width="0.432002" y1="0.216" xmlns="http://www.w3.org/2000/svg" stroke-linecap="round" stroke="#000000" x1="19.4301"/>
<line y2="3.096" class="other" x2="21.9501" stroke-width="0.432002" y1="5.976" xmlns="http://www.w3.org/2000/svg" stroke-linecap="round" stroke="#000000" x1="21.2301"/>
<line y2="3.096" class="pin" connectorname="2" id="connector1pin" x2="21.9501" stroke-width="0.700001" y1="3.096" xmlns="http://www.w3.org/2000/svg" stroke-linecap="round" stroke="#787878" x1="29.1502"/>
<g class="terminal" width="0.000283466" id="connector1terminal" y="3.096" height="0.000283465" stroke-width="0" xmlns="http://www.w3.org/2000/svg" x="29.1502" stroke="none" fill="none"/>
<text class="text" font-size="2.50001" y="2.046" stroke-width="0" font-family="'Droid Sans'" xmlns="http://www.w3.org/2000/svg" x="25.5501" stroke="none" fill="#8c8c8c" text-anchor="middle">2</text>
<line y2="3.096" class="pin" connectorname="1" id="connector0pin" x2="7.55002" stroke-width="0.700001" y1="3.096" xmlns="http://www.w3.org/2000/svg" stroke-linecap="round" stroke="#787878" x1="0.350001"/>
<g class="terminal" width="0.000283466" id="connector0terminal" y="3.096" height="0.000283465" stroke-width="0" xmlns="http://www.w3.org/2000/svg" x="0.350001" stroke="none" fill="none"/>
<text class="text" font-size="2.50001" y="2.046" stroke-width="0" font-family="'Droid Sans'" xmlns="http://www.w3.org/2000/svg" x="3.95001" stroke="none" fill="#8c8c8c" text-anchor="middle">1</text>
</g>
</g></g><g partID='855126120'><g transform='translate(180.033,110.892)' ><g id="schematic" xmlns="http://www.w3.org/2000/svg">
<line y2="0.216" class="other" x2="8.63003" stroke-width="0.432002" y1="3.096" xmlns="http://www.w3.org/2000/svg" stroke-linecap="round" stroke="#000000" x1="7.55002"/>
<line y2="5.976" class="other" x2="10.43" stroke-width="0.432002" y1="0.216" xmlns="http://www.w3.org/2000/svg" stroke-linecap="round" stroke="#000000" x1="8.63003"/>
<line y2="0.216" class="other" x2="12.23" stroke-width="0.432002" y1="5.976" xmlns="http://www.w3.org/2000/svg" stroke-linecap="round" stroke="#000000" x1="10.43"/>
<line y2="5.976" class="other" x2="14.03" stroke-width="0.432002" y1="0.216" xmlns="http://www.w3.org/2000/svg" stroke-linecap="round" stroke="#000000" x1="12.23"/>
<line y2="0.216" class="other" x2="15.8301" stroke-width="0.432002" y1="5.976" xmlns="http://www.w3.org/2000/svg" stroke-linecap="round" stroke="#000000" x1="14.03"/>
<line y2="5.976" class="other" x2="17.6301" stroke-width="0.432002" y1="0.216" xmlns="http://www.w3.org/2000/svg" stroke-linecap="round" stroke="#000000" x1="15.8301"/>
<line y2="0.216" class="other" x2="19.4301" stroke-width="0.432002" y1="5.976" xmlns="http://www.w3.org/2000/svg" stroke-linecap="round" stroke="#000000" x1="17.6301"/>
<line y2="5.976" class="other" x2="21.2301" stroke-width="0.432002" y1="0.216" xmlns="http://www.w3.org/2000/svg" stroke-linecap="round" stroke="#000000" x1="19.4301"/>
<line y2="3.096" class="other" x2="21.9501" stroke-width="0.432002" y1="5.976" xmlns="http://www.w3.org/2000/svg" stroke-linecap="round" stroke="#000000" x1="21.2301"/>
<line y2="3.096" class="pin" connectorname="2" id="connector1pin" x2="21.9501" stroke-width="0.700001" y1="3.096" xmlns="http://www.w3.org/2000/svg" stroke-linecap="round" stroke="#787878" x1="29.1502"/>
<g class="terminal" width="0.000283466" id="connector1terminal" y="3.096" height="0.000283465" stroke-width="0" xmlns="http://www.w3.org/2000/svg" x="29.1502" stroke="none" fill="none"/>
<text class="text" font-size="2.50001" y="2.046" stroke-width="0" font-family="'Droid Sans'" xmlns="http://www.w3.org/2000/svg" x="25.5501" stroke="none" fill="#8c8c8c" text-anchor="middle">2</text>
<line y2="3.096" class="pin" connectorname="1" id="connector0pin" x2="7.55002" stroke-width="0.700001" y1="3.096" xmlns="http://www.w3.org/2000/svg" stroke-linecap="round" stroke="#787878" x1="0.350001"/>
<g class="terminal" width="0.000283466" id="connector0terminal" y="3.096" height="0.000283465" stroke-width="0" xmlns="http://www.w3.org/2000/svg" x="0.350001" stroke="none" fill="none"/>
<text class="text" font-size="2.50001" y="2.046" stroke-width="0" font-family="'Droid Sans'" xmlns="http://www.w3.org/2000/svg" x="3.95001" stroke="none" fill="#8c8c8c" text-anchor="middle">1</text>
</g>
</g></g><g partID='855126370'><g transform='translate(144.023,63.9384)' ><g transform='matrix(0,-1,1,0,0,0)'  ><g id="schematic" xmlns="http://www.w3.org/2000/svg">
<path class="other" stroke-width="0.720001" xmlns="http://www.w3.org/2000/svg" d="M29.1501,7.56A7.20001,7.2,0,1,1,14.75,7.56" stroke="#000000" fill="none"/>
<path class="other" stroke-width="0.720001" xmlns="http://www.w3.org/2000/svg" d="M29.1501,7.56A7.20001,7.2,0,1,1,43.5502,7.56" stroke="#000000" fill="none"/>
<line y2="7.56" class="pin" connectorname="1" id="connector0pin" x2="14.75" stroke-width="0.7" y1="7.56" xmlns="http://www.w3.org/2000/svg" stroke-linecap="round" stroke="#787878" x1="0.35"/>
<g class="terminal" width="0.000283465" id="connector0terminal" y="7.56" height="0.000283465" stroke-width="0" xmlns="http://www.w3.org/2000/svg" x="0.35" stroke="none" fill="none"/>
<text class="text" font-size="2.5" y="6.50999" stroke-width="0" font-family="'Droid Sans'" xmlns="http://www.w3.org/2000/svg" x="7.55001" stroke="none" fill="#8c8c8c" text-anchor="middle">1</text>
<line y2="7.56" class="pin" connectorname="2" id="connector2pin" x2="43.5502" stroke-width="0.7" y1="7.56" xmlns="http://www.w3.org/2000/svg" stroke-linecap="round" stroke="#787878" x1="57.9502"/>
<g class="terminal" width="0.000283465" id="connector2terminal" y="7.56" height="0.000283465" stroke-width="0" xmlns="http://www.w3.org/2000/svg" x="57.9502" stroke="none" fill="none"/>
<text class="text" font-size="2.5" y="6.50999" stroke-width="0" font-family="'Droid Sans'" xmlns="http://www.w3.org/2000/svg" x="50.7502" stroke="none" fill="#8c8c8c" text-anchor="middle">3</text>
</g>
</g></g></g><g partID='855128240'><g transform='translate(119.776,5.60223)' ><g transform='matrix(0,1,-1,0,0,0)'  ><g id="schematic" xmlns="http://www.w3.org/2000/svg">
<line y2="22.1843" x2="11.1815" id="line4" stroke-width="1.152" y1="0.584204" xmlns="http://www.w3.org/2000/svg" stroke-linecap="round" stroke="#000000" x1="11.1815"/>
<line y2="14.9843" x2="14.7817" id="line6" stroke-width="1.152" y1="7.7843" xmlns="http://www.w3.org/2000/svg" stroke-linecap="round" stroke="#000000" x1="14.7817"/>
<line y2="22.1843" x2="18.3819" id="line8" stroke-width="1.152" y1="0.584204" xmlns="http://www.w3.org/2000/svg" stroke-linecap="round" stroke="#000000" x1="18.3819"/>
<line y2="14.9843" x2="21.9821" id="line10" stroke-width="1.152" y1="7.7843" xmlns="http://www.w3.org/2000/svg" stroke-linecap="round" stroke="#000000" x1="21.9821"/>
<line y2="11.3842" x2="10.4614" id="line12" stroke-width="0.432" y1="11.3842" xmlns="http://www.w3.org/2000/svg" stroke-linecap="round" stroke="#000000" x1="7.58128"/>
<text font-size="2.52" y="10.3345" id="text16" font-family="'Droid Sans'" xmlns="http://www.w3.org/2000/svg" x="25.5816" fill="#555555" text-anchor="middle">1</text>
<text font-size="2.52" y="10.3345" id="text20" font-family="'Droid Sans'" xmlns="http://www.w3.org/2000/svg" x="3.98095" fill="#555555" text-anchor="middle">2</text>
<line y2="11.3842" x2="22.3329" id="connector0pin" stroke-width="0.684337" y1="11.3842" xmlns="http://www.w3.org/2000/svg" stroke-linecap="round" stroke="#555555" x1="29.2144"/>
<g width="0.72" height="0.72" y="11.0325" id="connector0terminal" stroke-width="0" xmlns="http://www.w3.org/2000/svg" x="28.8259" stroke="none" fill="none"/>
<line y2="11.3842" x2="7.24659" id="connector1pin" stroke-width="0.72" y1="11.3842" xmlns="http://www.w3.org/2000/svg" stroke-linecap="round" stroke="#555555" x1="0.365127"/>
<g width="0.72" height="0.72" y="11.0325" id="connector1terminal" stroke-width="0" xmlns="http://www.w3.org/2000/svg" x="0.0258571" stroke="none" fill="none"/>
</g>
</g></g></g><g partID='855130760'><line stroke-linecap='round' stroke='#cc1414' x1='151.688' y1='5.88373' x2='108.383' y2='5.98808' stroke-width='0.699998' /></g><g partID='855130770'><line stroke-linecap='round' stroke='#cc1414' x1='151.583' y1='5.98808' x2='151.688' y2='5.88373' stroke-width='0.699998' /></g><g partID='855131080'><line stroke-linecap='round' stroke='#cc1414' x1='57.9833' y1='78.1481' x2='151.583' y2='77.9881' stroke-width='0.699998' /></g><circle  fill="black" cx="151.583" cy="77.9881" r="1.44" stroke-width="0" stroke="none" /><g partID='855131090'><line stroke-linecap='round' stroke='#cc1414' x1='57.9833' y1='77.9881' x2='57.9833' y2='78.1481' stroke-width='0.699998' /></g><g partID='855132720'><line stroke-linecap='round' stroke='#404040' x1='165.879' y1='128.319' x2='165.937' y2='105.095' stroke-width='0.699998' /></g><g partID='855131660'><line stroke-linecap='round' stroke='#404040' x1='108.279' y1='128.319' x2='165.879' y2='128.319' stroke-width='0.699998' /></g><g partID='855131670'><line stroke-linecap='round' stroke='#404040' x1='43.6483' y1='106.577' x2='43.5833' y2='128.388' stroke-width='0.699998' /></g><g partID='855131760'><line stroke-linecap='round' stroke='#404040' x1='43.5833' y1='128.388' x2='108.279' y2='128.319' stroke-width='0.699998' /></g><circle  fill="black" cx="108.279" cy="128.319" r="1.44" stroke-width="0" stroke="none" /><g partID='855132130'><line stroke-linecap='round' stroke='#404040' x1='108.279' y1='34.8229' x2='108.279' y2='128.319' stroke-width='0.699998' /></g><g partID='855132140'><line stroke-linecap='round' stroke='#404040' x1='108.383' y1='34.7881' x2='108.279' y2='34.8229' stroke-width='0.699998' /></g><g partID='855133130'><line stroke-linecap='round' stroke='#cc1414' x1='151.583' y1='77.9881' x2='151.583' y2='63.5883' stroke-width='0.699998' /></g><circle  fill="black" cx="151.583" cy="77.9881" r="1.44" stroke-width="0" stroke="none" /><g partID='855133290'><line stroke-linecap='round' stroke='#fff800' x1='187.583' y1='114.127' x2='137.218' y2='114.127' stroke-width='0.699998' /></g><g partID='855133350'><line stroke-linecap='round' stroke='#fff800' x1='137.218' y1='114.127' x2='137.248' y2='106.577' stroke-width='0.699998' /></g><g partID='855133300'><line stroke-linecap='round' stroke='#fff800' x1='180.383' y1='113.988' x2='187.583' y2='114.127' stroke-width='0.699998' /></g><g partID='855133560'><line stroke-linecap='round' stroke='#fff800' x1='72.3833' y1='114.127' x2='72.3368' y2='105.095' stroke-width='0.699998' /></g><g partID='855133500'><line stroke-linecap='round' stroke='#fff800' x1='29.2529' y1='114.127' x2='72.3833' y2='114.127' stroke-width='0.699998' /></g><g partID='855133510'><line stroke-linecap='round' stroke='#fff800' x1='29.1833' y1='113.988' x2='29.2529' y2='114.127' stroke-width='0.699998' /></g><g partID='855120740' id='partLabel'><g transform='translate(39.1156,71.919)' ><g transform='matrix(1,0,0,1,0,0)'  ><g font-size='5' font-style='normal' font-weight='normal' fill='#000000' font-family="'DroidSans'" id='schematicLabel' fill-opacity='1' stroke='none' ><text x='0' y='3.75'>DRL_L</text></g></g></g></g><g partID='855120710' id='partLabel'><g transform='translate(159.985,71.9191)' ><g transform='matrix(1,0,0,1,0,0)'  ><g font-size='5' font-style='normal' font-weight='normal' fill='#000000' font-family="'DroidSans'" id='schematicLabel' fill-opacity='1' stroke='none' ><text x='0' y='3.75'>DRL_R</text></g></g></g></g><g partID='855125960' id='partLabel'><g transform='translate(0,99.5162)' ><g font-size='5' font-style='normal' font-weight='normal' fill='#000000' font-family="'DroidSans'" id='schematicLabel' fill-opacity='1' stroke='none' ><text x='0' y='3.75'>Decoder</text><text x='0' y='8.75'>220&#x3a9;</text></g></g></g><g partID='855126120' id='partLabel'><g transform='translate(180,99.2379)' ><g font-size='5' font-style='normal' font-weight='normal' fill='#000000' font-family="'DroidSans'" id='schematicLabel' fill-opacity='1' stroke='none' ><text x='0' y='3.75'>Decoder</text><text x='0' y='8.75'>220&#x3a9;</text></g></g></g><g partID='855126370' id='partLabel'><g transform='translate(159.393,32.7484)' ><g font-size='5' font-style='normal' font-weight='normal' fill='#000000' font-family="'DroidSans'" id='schematicLabel' fill-opacity='1' stroke='none' ><text x='0' y='3.75'>F1 - 3A</text></g></g></g><g partID='855128240' id='partLabel'><g transform='translate(96.7576,0)' ><g font-size='5' font-style='normal' font-weight='normal' fill='#000000' font-family="'DroidSans'" id='schematicLabel' fill-opacity='1' stroke='none' ><text x='0' y='3.75'>BAT - 12V</text></g></g></g></svg>